<svg width="66" height="66" viewBox="0 0 66 66" fill="none" xmlns="http://www.w3.org/2000/svg">
<path fill-rule="evenodd" clip-rule="evenodd" d="M11.5207 6.02068C12.2943 5.2471 13.3435 4.8125 14.4375 4.8125H19.25C20.0094 4.8125 20.625 5.42811 20.625 6.1875C20.625 6.94689 20.0094 7.5625 19.25 7.5625H14.4375C14.0728 7.5625 13.7231 7.70737 13.4652 7.96523C13.2074 8.22309 13.0625 8.57283 13.0625 8.9375V57.0625C13.0625 57.4272 13.2074 57.7769 13.4652 58.0348C13.7231 58.2926 14.0728 58.4375 14.4375 58.4375H51.5625C51.9272 58.4375 52.2769 58.2926 52.5348 58.0348C52.7926 57.7769 52.9375 57.4272 52.9375 57.0625V8.9375C52.9375 8.57282 52.7926 8.22309 52.5348 7.96523C52.2769 7.70737 51.9272 7.5625 51.5625 7.5625H33C32.2406 7.5625 31.625 6.94689 31.625 6.1875C31.625 5.42811 32.2406 4.8125 33 4.8125H51.5625C52.6565 4.8125 53.7057 5.2471 54.4793 6.02068C55.2529 6.79427 55.6875 7.84348 55.6875 8.9375V57.0625C55.6875 58.1565 55.2529 59.2057 54.4793 59.9793C53.7057 60.7529 52.6565 61.1875 51.5625 61.1875H14.4375C13.3435 61.1875 12.2943 60.7529 11.5207 59.9793C10.7471 59.2057 10.3125 58.1565 10.3125 57.0625V8.9375C10.3125 7.84348 10.7471 6.79427 11.5207 6.02068Z" fill="black"/>
<path fill-rule="evenodd" clip-rule="evenodd" d="M19.8199 4.93582C20.2949 5.15243 20.625 5.63141 20.625 6.1875V35.868L25.1527 31.3402C25.6897 30.8033 26.5603 30.8033 27.0973 31.3402L31.625 35.868V4.8125H20.3888C20.3887 4.8125 20.3889 4.8125 20.3888 4.8125C20.1907 4.81258 19.9968 4.85539 19.8199 4.93582ZM34.375 12.375V4.8125C34.375 4.08316 34.0853 3.38368 33.5695 2.86796C33.0538 2.35223 32.3543 2.0625 31.625 2.0625H20.3885C19.2946 2.06273 18.2454 2.49743 17.472 3.27098C17.472 3.27093 17.4719 3.27103 17.472 3.27098L15.5277 5.21523C14.9908 5.7522 14.9908 6.6228 15.5277 7.15977C16.0647 7.69674 16.9353 7.69674 17.4723 7.15977L17.875 6.75704V39.1875C17.875 39.7436 18.21 40.245 18.7238 40.4578C19.2376 40.6707 19.829 40.553 20.2223 40.1598L26.125 34.257L32.0277 40.1598C32.421 40.553 33.0124 40.6707 33.5262 40.4578C34.04 40.245 34.375 39.7436 34.375 39.1875V34.375H46.75C47.5094 34.375 48.125 33.7594 48.125 33C48.125 32.2406 47.5094 31.625 46.75 31.625H34.375V24.75H46.75C47.5094 24.75 48.125 24.1344 48.125 23.375C48.125 22.6156 47.5094 22 46.75 22H34.375V15.125H46.75C47.5094 15.125 48.125 14.5094 48.125 13.75C48.125 12.9906 47.5094 12.375 46.75 12.375H34.375ZM17.875 42.625C17.875 41.8656 18.4906 41.25 19.25 41.25H46.75C47.5094 41.25 48.125 41.8656 48.125 42.625C48.125 43.3844 47.5094 44 46.75 44H19.25C18.4906 44 17.875 43.3844 17.875 42.625ZM17.875 52.25C17.875 51.4906 18.4906 50.875 19.25 50.875H46.75C47.5094 50.875 48.125 51.4906 48.125 52.25C48.125 53.0094 47.5094 53.625 46.75 53.625H19.25C18.4906 53.625 17.875 53.0094 17.875 52.25Z" fill="black"/>
</svg>
