<svg width="414" height="357" viewBox="0 0 414 357" fill="none" xmlns="http://www.w3.org/2000/svg">
<path d="M182.627 37.3531C184.45 45.706 186.803 36.706 185.921 24.9413C184.156 2.17662 182.627 -4.41161 180.862 2.76486C180.627 3.58839 181.039 30.1178 182.627 37.3531Z" fill="#EEB1FE"/>
<path d="M216.627 55.8825C218.568 55.1766 225.216 28.9419 226.216 17.8242C226.627 13.2948 226.039 6.88247 222.098 19.1766C218.804 29.3531 216.333 44.2942 214.451 53.2942C214.216 54.4119 215.686 56.1766 216.627 55.8825Z" fill="#EEB1FE"/>
<path d="M274.803 91.7649C270.568 99.0002 269.744 101.177 270.568 102.177C272.333 104.294 271.803 102.53 277.98 94.4714C282.038 89.1773 278.744 85.0002 274.803 91.7649Z" fill="#EEB1FE"/>
<path d="M106.038 233.235C94.6854 243.235 78.0972 264.236 68.2148 274.589C59.9207 283.295 62.2736 286.941 72.7442 275.647C85.6266 261.765 113.509 233.766 113.509 229.883C113.509 228.295 109.627 230 106.038 233.235Z" fill="#EEB1FE"/>
<path d="M285.744 32.765C288.038 28.2356 285.567 27.2944 282.273 31.4709C278.803 35.8238 255.92 68.8238 255.861 73.4709C255.803 80.8238 273.744 56.412 285.744 32.765Z" fill="#EEB1FE"/>
<path d="M77.8614 221.706C97.8614 206.765 115.803 195.707 113.391 194.177C112.391 193.53 112.391 193.53 109.156 195.235C105.038 197.412 101.626 199.824 87.6849 209.177C58.7438 228.589 58.9791 228.294 61.5085 229.941C63.9791 231.53 66.0379 230.471 77.8614 221.706Z" fill="#EEB1FE"/>
<path d="M397.038 148.353C412.509 144.059 411.391 139.353 395.626 142.294C388.214 143.706 385.626 145.765 388.214 148.353C389.744 149.824 391.45 149.882 397.038 148.353Z" fill="#EEB1FE"/>
<path d="M288.627 101.824C286.745 103.707 289.215 106.706 291.45 105.294C319.45 87.4709 345.921 65.412 345.921 63.1767C345.921 60.4708 342.51 60.1179 338.569 62.4709C313.863 77.2944 286.098 103.883 288.627 101.824Z" fill="#EEB1FE"/>
<path d="M404.686 88.1184C404.686 86.4125 404.215 86.4119 398.509 87.4707C394.686 88.1766 393.921 89.3531 395.274 91.8825C396.509 94.1178 404.686 90.8831 404.686 88.1184Z" fill="#EEB1FE"/>
<path d="M144.391 250.294C135.744 259.647 127.274 274.177 117.98 286.942C104.038 306.118 111.038 306.883 119.568 294.295C121.686 291.177 142.862 263.294 148.568 251.706C151.803 245.235 149.156 245.118 144.391 250.294Z" fill="#EEB1FE"/>
<path d="M366.744 171.06C366.391 171.177 365.038 171.589 363.685 171.942C358.215 173.354 357.803 176.06 363.097 176.06C377.332 176.06 373.862 168.471 366.744 171.06Z" fill="#EEB1FE"/>
<path d="M321.979 124.118C324.391 123.177 353.508 111.236 370.155 104.412C380.744 100.059 383.979 98.2361 384.45 96.3538C385.155 93.5302 383.803 93.1185 378.332 94.5891C373.685 95.8243 333.744 113.236 322.155 119.06C315.861 122.236 315.685 126.588 321.979 124.118Z" fill="#EEB1FE"/>
<path d="M388.392 275.412C370.568 258 341.627 233.294 331.568 226.412C326.921 223.235 326.274 224.471 330.156 228.647C335.686 234.588 348.921 247.471 354.686 252.353C393.156 285 395.392 292.588 398.921 289.059C400.627 287.412 400.333 287 388.392 275.412Z" fill="#EEB1FE"/>
<path d="M363.097 309.412C360.45 310.471 365.686 318.294 368.568 317.588C370.568 317.059 370.392 316.118 367.568 312.294C365.156 309.059 364.627 308.765 363.097 309.412Z" fill="#EEB1FE"/>
<path d="M343.509 285.294C347.685 294.118 350.921 297.707 353.744 296.648C356.568 295.53 355.568 292.883 349.509 285.471C343.156 277.648 340.862 279.824 343.509 285.294Z" fill="#EEB1FE"/>
<path d="M310.392 284.177C307.392 284.824 314.803 301.118 327.333 321.236C334.215 332.295 338.509 339.53 340.274 342.824C343.862 349.766 350.098 350.942 340.98 334.883C323.921 305.06 314.215 283.295 310.392 284.177Z" fill="#EEB1FE"/>
<path d="M372.333 233.001C372.333 230.236 358.922 223.177 357.157 225C355.863 226.294 356.392 227.118 360.568 230.706C367.686 236.765 372.333 237.707 372.333 233.001Z" fill="#EEB1FE"/>
<path d="M411.097 190.06C412.509 189.707 413.392 188.294 413.156 186.883C412.921 185.471 411.686 184.413 410.215 184.471C393.98 185.177 371.45 187.647 345.921 192.647C341.392 193.53 335.744 196.295 347.274 196.236C362.921 196.06 401.274 192.707 411.097 190.06Z" fill="#EEB1FE"/>
<path d="M324.921 248.883C305.097 195.001 293.98 204 304.98 195.529C340.921 167.941 347.45 163.648 360.803 158.118C370.685 154.001 366.098 147.177 351.451 144.059C330.098 139.588 314.568 135.824 293.744 142.53C265.097 151.765 252.685 124.354 242.803 103.707C223.862 64.2359 180.215 41.2359 160.45 39.0007C151.979 38.0595 150.215 36.3536 144.215 45.1771C113.921 89.5301 83.4506 126.589 51.8623 171.648C48.1564 176.942 8.09733 234.471 6.09733 237.236C-6.02032 254.059 2.56803 252.765 9.15627 244.412C16.1564 235.529 31.5682 213.059 71.8623 156.059C118.392 166.471 142.568 190.412 157.451 224.118C175.686 265.412 192.215 276.118 229.803 270.942C245.392 268.824 239.451 270.471 269.803 266C283.098 264.059 304.038 265.294 316.979 268.824C331.803 272.882 332.803 270.354 324.921 248.883Z" fill="#EEB1FE"/>
<path d="M260.392 315.354C258.51 317.413 260.215 321.824 263.803 338.707C267.45 355.765 268.98 359.001 271.51 355.177C272.51 353.648 272.45 353.353 270.274 345.588C262.744 318.294 262.568 312.942 260.392 315.354Z" fill="#EEB1FE"/>
<path d="M121.45 222.647C123.921 219.059 120.156 218.177 117.097 221.648C113.686 225.53 118.509 226.941 121.45 222.647Z" fill="#EEB1FE"/>
<path d="M159.862 323.765C157.332 325.236 155.332 333.118 157.509 333.118C159.332 333.118 160.979 331.354 161.921 328.295C163.332 324.06 162.45 322.236 159.862 323.765Z" fill="#EEB1FE"/>
<path d="M176.332 269.412C175.627 269.588 174.862 271.177 173.862 274.471C165.391 302.294 164.979 304.412 167.509 304.765C169.921 305.118 170.862 303.118 173.744 292.177C178.274 274.471 178.921 268.765 176.332 269.412Z" fill="#EEB1FE"/>
<path d="M216.921 288.883C214.744 289.354 216.097 299.589 213.274 317.413C212.156 324.354 210.98 341.471 211.45 343.059C212.215 345.53 217.038 343.706 217.038 340.883C217.215 329.824 220.98 288.001 216.921 288.883Z" fill="#EEB1FE"/>
<path d="M258.215 293.707C255.274 286.413 251.98 288.53 253.744 298.647C255.333 307.824 261.744 302.413 258.215 293.707Z" fill="#EEB1FE"/>
</svg>
