<svg width="214" height="69" viewBox="0 0 214 69" fill="none" xmlns="http://www.w3.org/2000/svg">
<path d="M19.1327 55.455C16.8441 55.455 14.8231 55.1719 13.0695 54.6056C11.3159 54.0096 9.8298 53.1304 8.6112 51.968C7.42233 50.8057 6.51581 49.3603 5.89165 47.6317C5.29722 45.8733 5 43.8466 5 41.5518V27.2015C5 25.8306 5.35666 24.8023 6.06999 24.1169C6.78331 23.4016 7.79385 23.0439 9.10161 23.0439C10.4391 23.0439 11.4496 23.4016 12.1332 24.1169C12.8466 24.8023 13.2032 25.8306 13.2032 27.2015V41.6412C13.2032 43.9361 13.7085 45.6646 14.719 46.827C15.7296 47.9893 17.2008 48.5705 19.1327 48.5705C21.0349 48.5705 22.4913 47.9893 23.5018 46.827C24.5124 45.6646 25.0177 43.9361 25.0177 41.6412V27.2015C25.0177 25.8306 25.3595 24.8023 26.0431 24.1169C26.7564 23.4016 27.7669 23.0439 29.0747 23.0439C30.3824 23.0439 31.3781 23.4016 32.0617 24.1169C32.7453 24.8023 33.0871 25.8306 33.0871 27.2015V41.5518C33.0871 44.6215 32.5521 47.1995 31.4821 49.2857C30.4419 51.3422 28.8815 52.8919 26.801 53.9351C24.7204 54.9484 22.1644 55.455 19.1327 55.455Z" fill="#1F1F1F"/>
<path d="M43.2987 55.3656C42.0503 55.3656 41.0992 55.0378 40.4454 54.3821C39.7915 53.7264 39.4645 52.7578 39.4645 51.4763V27.1121C39.4645 25.8008 39.7915 24.8023 40.4454 24.1169C41.0992 23.4016 41.9612 23.0439 43.0312 23.0439C43.9823 23.0439 44.7253 23.2228 45.2603 23.5804C45.7953 23.938 46.3897 24.5341 47.0436 25.3686L61.1763 43.0718H59.928V26.8886C59.928 25.6368 60.2401 24.6831 60.8643 24.0275C61.5181 23.3718 62.4692 23.0439 63.7176 23.0439C64.9659 23.0439 65.9021 23.3718 66.5263 24.0275C67.1801 24.6831 67.5071 25.6368 67.5071 26.8886V51.6551C67.5071 52.7876 67.2099 53.6966 66.6154 54.3821C66.021 55.0378 65.2185 55.3656 64.208 55.3656C63.1974 55.3656 62.3949 55.1868 61.8005 54.8292C61.2358 54.4417 60.6265 53.8456 59.9726 53.041L45.8399 35.2931H47.0882V51.4763C47.0882 52.7578 46.7613 53.7264 46.1074 54.3821C45.4832 55.0378 44.547 55.3656 43.2987 55.3656Z" fill="#1F1F1F"/>
<path d="M135.062 54.7944C133.747 54.7944 132.731 54.4358 132.013 53.7185C131.296 52.9714 130.938 51.9403 130.938 50.6253V26.5524C130.938 25.1776 131.296 24.1466 132.013 23.4592C132.731 22.7419 133.747 22.3833 135.062 22.3833C136.406 22.3833 137.422 22.7419 138.11 23.4592C138.827 24.1466 139.186 25.1776 139.186 26.5524V36.325H139.275L150.168 24.3109C150.736 23.7132 151.334 23.25 151.961 22.9212C152.619 22.5626 153.351 22.3833 154.158 22.3833C155.413 22.3833 156.309 22.712 156.847 23.3695C157.415 23.9971 157.669 24.7443 157.609 25.611C157.58 26.4478 157.236 27.2248 156.578 27.942L145.73 39.463V36.1009L157.116 48.9667C157.893 49.8334 158.282 50.7299 158.282 51.6564C158.282 52.553 157.968 53.3001 157.34 53.8978C156.743 54.4955 155.846 54.7944 154.651 54.7944C153.635 54.7944 152.813 54.6001 152.185 54.2116C151.588 53.7932 150.93 53.1806 150.213 52.3736L139.275 40.1354H139.186V50.6253C139.186 51.9403 138.842 52.9714 138.155 53.7185C137.467 54.4358 136.436 54.7944 135.062 54.7944Z" fill="#B87DEA"/>
<path d="M167.871 54.7944C166.556 54.7944 165.54 54.4358 164.823 53.7185C164.105 52.9714 163.747 51.9254 163.747 50.5805V26.5972C163.747 25.2224 164.105 24.1764 164.823 23.4592C165.54 22.7419 166.556 22.3833 167.871 22.3833C169.216 22.3833 170.232 22.7419 170.919 23.4592C171.636 24.1764 171.995 25.2224 171.995 26.5972V50.5805C171.995 51.9254 171.651 52.9714 170.964 53.7185C170.277 54.4358 169.246 54.7944 167.871 54.7944Z" fill="#B87DEA"/>
<path d="M182.911 54.3909C181.507 54.3909 180.431 54.0323 179.684 53.315C178.967 52.5679 178.608 51.507 178.608 50.1322V27.0455C178.608 25.6707 178.967 24.6247 179.684 23.9075C180.431 23.1603 181.507 22.7868 182.911 22.7868H191.697C197.196 22.7868 201.44 24.1615 204.428 26.911C207.446 29.6605 208.956 33.5456 208.956 38.5664C208.956 41.0768 208.567 43.3183 207.79 45.2907C207.013 47.2333 205.892 48.892 204.428 50.2667C202.964 51.6116 201.156 52.6426 199.004 53.3599C196.882 54.0472 194.447 54.3909 191.697 54.3909H182.911ZM186.856 47.7115H191.159C192.743 47.7115 194.103 47.5172 195.239 47.1287C196.404 46.7402 197.36 46.1723 198.108 45.4252C198.885 44.6781 199.452 43.7367 199.811 42.601C200.199 41.4653 200.394 40.1205 200.394 38.5664C200.394 35.4583 199.632 33.1721 198.108 31.7077C196.583 30.2134 194.267 29.4662 191.159 29.4662H186.856V47.7115Z" fill="#B87DEA"/>
<circle r="1.72349" transform="matrix(1 0 0 -1 78.9618 38.4762)" fill="black"/>
<circle r="1.72349" transform="matrix(1 0 0 -1 101.712 50.424)" fill="black"/>
<rect x="90.209" y="51.5234" width="23.2137" height="1.83759" fill="black"/>
<path d="M99.043 20.1294L105.38 20.7916L102.882 22.3317H99.043V20.1294Z" fill="black"/>
<circle r="1.72349" transform="matrix(1 0 0 -1 98.2665 21.2794)" fill="black"/>
<path d="M96.7931 21.1912L79.0259 37.1163L80.1047 38.3329L97.9005 22.5778L96.7931 21.1912Z" fill="black"/>
<path d="M101.282 49.1874L80.1541 38.101L79.3909 39.5367L100.369 50.7093L101.282 49.1874Z" fill="black"/>
<ellipse cx="111.648" cy="20.1296" rx="7.49753" ry="7.36394" fill="black"/>
<ellipse cx="111.648" cy="20.1296" rx="7.49753" ry="7.36394" fill="black"/>
<path d="M121.336 27.7262C121.498 27.0157 121.583 26.2763 121.583 25.517C121.583 20.0301 117.135 15.582 111.648 15.582C106.161 15.582 101.713 20.0301 101.713 25.517C101.713 26.2763 101.798 27.0157 101.959 27.7262C102.964 23.3024 106.92 20.0002 111.648 20.0002C116.376 20.0002 120.332 23.3025 121.336 27.7262Z" fill="white"/>
<path fill-rule="evenodd" clip-rule="evenodd" d="M121.582 25.3586C121.497 19.9447 117.082 15.582 111.648 15.582C106.214 15.582 101.799 19.9447 101.714 25.3586C101.713 25.4113 101.713 25.4641 101.713 25.517C101.713 26.2763 101.798 27.0157 101.959 27.7262C102.129 26.9769 102.384 26.2599 102.713 25.5856C104.326 22.2786 107.721 20.0002 111.648 20.0002C115.575 20.0002 118.97 22.2786 120.583 25.5856C120.912 26.2599 121.166 26.9769 121.336 27.7262C121.498 27.0157 121.583 26.2763 121.583 25.517C121.583 25.4641 121.583 25.4113 121.582 25.3586ZM103.008 23.2325C105.008 20.6574 108.134 19.0002 111.648 19.0002C115.162 19.0002 118.288 20.6574 120.288 23.2325C119.279 19.4046 115.793 16.582 111.648 16.582C107.503 16.582 104.017 19.4046 103.008 23.2325Z" fill="black"/>
<circle cx="111.648" cy="25.517" r="9.43501" stroke="black"/>
<path d="M99 11.1099L106.92 5L116.968 7.48922L114.239 9.64453L115.293 14.459C112.831 20.4694 106.483 19.0754 103.617 17.6271L102.437 12.0273L99.3874 11.2133L100.808 16.7409L100.313 16.903L99 11.1099Z" fill="#D743FD"/>
<path fill-rule="evenodd" clip-rule="evenodd" d="M98.9996 11.1098L106.92 4.99995L116.967 7.48917L109.002 13.7801L99.387 11.2133L100.808 16.7409L100.312 16.9029L98.9996 11.1098ZM98.8898 10.563L98.6899 10.5096L98.7344 10.6829L98.4414 10.909L99.9459 17.5487L101.409 17.0704L100.084 11.9169L109.115 14.3278L118.078 7.24919L106.806 4.45654L98.8898 10.563Z" fill="white"/>
</svg>
