<svg width="66" height="66" viewBox="0 0 66 66" fill="none" xmlns="http://www.w3.org/2000/svg">
<path fill-rule="evenodd" clip-rule="evenodd" d="M19.25 8.25C18.5207 8.25 17.8212 8.53973 17.3055 9.05546C16.7897 9.57118 16.5 10.2707 16.5 11V55C16.5 55.7293 16.7897 56.4288 17.3055 56.9445C17.8212 57.4603 18.5207 57.75 19.25 57.75H46.75C47.4793 57.75 48.1788 57.4603 48.6945 56.9445C49.2103 56.4288 49.5 55.7293 49.5 55V21.6887L37.284 8.25H19.25ZM19.25 5.5H37.8923C38.2797 5.5 38.6491 5.66344 38.9097 5.95011L51.8925 20.2322C52.1225 20.4853 52.25 20.8151 52.25 21.1571V55C52.25 56.4587 51.6705 57.8576 50.6391 58.8891C49.6076 59.9205 48.2087 60.5 46.75 60.5H19.25C17.7913 60.5 16.3924 59.9205 15.3609 58.8891C14.3295 57.8576 13.75 56.4587 13.75 55V11C13.75 9.54131 14.3295 8.14236 15.3609 7.11091C16.3924 6.07946 17.7913 5.5 19.25 5.5Z" fill="#48225A"/>
<path fill-rule="evenodd" clip-rule="evenodd" d="M19.25 45.375C19.25 44.6156 19.8656 44 20.625 44H45.375C46.1344 44 46.75 44.6156 46.75 45.375C46.75 46.1344 46.1344 46.75 45.375 46.75H20.625C19.8656 46.75 19.25 46.1344 19.25 45.375ZM19.25 50.875C19.25 50.1156 19.8656 49.5 20.625 49.5H37.125C37.8844 49.5 38.5 50.1156 38.5 50.875C38.5 51.6344 37.8844 52.25 37.125 52.25H20.625C19.8656 52.25 19.25 51.6344 19.25 50.875Z" fill="#48225A"/>
<path fill-rule="evenodd" clip-rule="evenodd" d="M27.5004 20.625C28.0554 20.625 28.5561 20.9588 28.7696 21.4712L33.914 33.8177C33.9225 33.8368 33.9305 33.8561 33.9381 33.8756L35.6446 37.9712C35.9367 38.6721 35.6052 39.4772 34.9042 39.7692C34.2032 40.0613 33.3982 39.7298 33.1061 39.0288L31.7399 35.75H23.2608L21.8946 39.0288C21.6025 39.7298 20.7975 40.0613 20.0965 39.7692C19.3955 39.4772 19.0641 38.6721 19.3561 37.9712L21.0626 33.8756C21.0702 33.8561 21.0783 33.8368 21.0867 33.8178L26.2311 21.4712C26.4446 20.9588 26.9453 20.625 27.5004 20.625ZM24.4066 33H30.5941L27.5004 25.575L24.4066 33Z" fill="#48225A"/>
<path fill-rule="evenodd" clip-rule="evenodd" d="M41.25 28.875C42.0094 28.875 42.625 29.4906 42.625 30.25V33H45.375C46.1344 33 46.75 33.6156 46.75 34.375C46.75 35.1344 46.1344 35.75 45.375 35.75H42.625V38.5C42.625 39.2594 42.0094 39.875 41.25 39.875C40.4906 39.875 39.875 39.2594 39.875 38.5V35.75H37.125C36.3656 35.75 35.75 35.1344 35.75 34.375C35.75 33.6156 36.3656 33 37.125 33H39.875V30.25C39.875 29.4906 40.4906 28.875 41.25 28.875Z" fill="#48225A"/>
</svg>
