<svg width="80" height="80" viewBox="0 0 80 80" fill="none" xmlns="http://www.w3.org/2000/svg">
<path d="M48.5334 13.206C49.9674 10.2904 48.1032 8.18728 46.1196 10.5055C44.6618 12.2262 42.6066 17.1254 42.9651 18.0574C43.8015 20.1844 46.0958 18.1769 48.5334 13.206Z" fill="black"/>
<path d="M34.266 19.0849C35.7716 19.5628 36.2974 18.6786 36.1301 15.9541C35.7716 10.5769 34.1226 8.35434 31.3025 9.47757C29.9642 10.0033 32.593 18.5591 34.266 19.0849Z" fill="black"/>
<path d="M19.1873 20.4715C22.581 23.0047 24.9468 24.128 26.1418 23.6978C27.6235 23.172 27.3846 22.6702 24.684 20.5432C21.2426 17.7948 19.3545 16.9823 17.5382 17.4602C16.2477 17.7948 16.6541 18.5596 19.1873 20.4715Z" fill="black"/>
<path d="M48.5087 21.3792C47.6962 22.2635 47.6962 22.2873 48.3176 22.7414C50.0861 24.0319 51.9741 23.0043 59.4544 16.6234C61.4619 14.9026 58.1399 13.5404 55.7978 15.1416C54.579 15.9781 49.4647 20.3516 48.5087 21.3792Z" fill="black"/>
<path d="M76.9493 64.4446C76.1129 63.7516 75.5632 62.461 75.3243 60.6208C75.157 59.3542 72.4803 38.4189 71.2615 32.8983C70.2577 28.3098 67.4377 26.135 65.1912 26.0155C63.7812 25.9438 62.9686 26.8759 62.395 26.5174C60.8416 25.5376 60.4114 25.0835 58.8819 25.2269C58.1649 25.2747 56.5637 25.7048 56.014 26.1828C55.6555 26.4696 55.2016 26.4696 54.1978 26.2067C49.2747 24.8923 47.0998 29.5764 49.3224 36.7221C50.589 40.8088 52.4054 39.0164 51.8796 34.2128C51.1865 27.8557 51.3299 27.1865 53.3135 27.9035C54.389 28.2859 54.4367 28.3815 54.3411 29.6959C54.1977 31.5361 55.4883 39.9485 55.9663 40.2592C57.2807 41.1195 58.2845 39.59 57.8543 37.3196C56.6832 30.9625 57.4719 27.0193 59.814 27.6167C60.531 27.8079 61.0567 28.4532 61.0567 29.194C61.1762 36.3876 61.2479 41.1912 63.4465 41.1912C64.8327 41.1912 64.8327 41.239 64.522 35.0014C64.1874 28.3815 64.9761 28.023 66.1472 28.3815C67.844 28.9073 68.0113 32.8744 68.1786 33.9499C68.1786 33.9738 71.9545 58.7806 71.9545 58.8284C72.4086 64.4685 75.9217 69.4156 78.3832 67.8383C78.8851 67.5037 77.9531 65.2811 76.9493 64.4446Z" fill="black"/>
<path d="M17.9196 34.3322C17.9196 30.4845 17.9674 30.1738 18.7321 29.3134C20.0944 27.7122 20.5246 29.1701 20.7875 36.5309C20.9787 41.9081 21.0026 41.9797 22.1497 42.3143C23.6315 42.7684 23.7749 42.0753 23.6076 36.0051C23.4403 30.5323 23.4642 30.3411 24.1811 29.6241C25.6628 28.1185 25.9736 28.716 26.5949 33.902C26.9534 37.0566 26.9055 38.8251 26.4037 41.5496C26.2842 42.2426 26.4036 42.4577 26.9772 42.625C28.5306 43.0313 28.7935 42.5055 29.2476 37.9648C30.0362 30.1021 28.9608 27.7361 24.5157 27.6883C23.2013 27.6644 21.6956 27.4971 21.1699 27.2581C20.6441 27.0431 19.4491 26.8758 18.5171 26.8997C17.585 26.9236 16.0555 26.8519 15.1473 26.7324C14.048 26.589 13.1399 26.6846 12.4947 26.9714C9.74633 28.238 9.26836 29.7197 6.04203 47.1419C5.49236 50.1531 4.87097 53.9052 4.70368 55.4586C4.3691 58.3504 3.36531 61.7201 2.02698 64.4923C1.09493 66.4042 1.31007 67.0973 2.79179 67.0973C5.44454 67.0973 7.93001 62.7955 8.52747 57.1315C8.83816 54.1203 9.38785 52.8776 10.3438 45.9947C12.1601 32.731 12.4946 31.2014 13.8329 29.648C15.6731 27.521 15.5058 28.2141 15.7448 40.5936C15.7448 41.1194 16.2228 41.5257 16.7486 41.4779C17.7046 41.4062 17.9196 40.5219 17.9196 34.3322Z" fill="black"/>
<path d="M62.4905 67.2885C60.9849 64.5162 60.8654 64.4207 58.1887 64.1339C54.9385 63.7754 52.4291 62.5088 51.3537 60.6925C48.9877 56.6536 45.6658 45.923 46.0482 43.5571C46.574 40.2351 47.6733 40.4741 49.4657 44.2501C50.8757 47.2136 51.8078 48.2651 55.1297 50.7506C56.6115 51.8499 57.5196 52.8298 58.1171 54.0008C58.8579 55.4347 59.1208 55.6737 59.9811 55.6737C62.9207 55.6737 59.4076 49.2928 55.8228 48.1456C54.2933 47.6677 53.8153 47.2614 53.8153 46.4727C53.8153 42.5294 48.0557 38.2516 44.9967 39.9245C42.3678 41.3823 42.1527 43.581 43.969 50.2009C47.4582 62.8911 49.4179 65.4722 55.9662 66.0458C58.5233 66.2848 59.1446 66.7149 60.4352 69.1287C62.2037 72.4506 64.2351 70.1802 63.8288 69.6545C63.6854 69.4394 63.088 68.3878 62.4905 67.2885Z" fill="black"/>
<path d="M30.7297 41.4781C28.9851 42.2907 27.097 44.2982 26.2845 46.2101C25.687 47.6201 25.5198 47.7635 24.1814 47.9786C21.2658 48.4327 18.7326 50.6075 18.3502 52.9256C18.0156 54.9809 20.1186 56.0325 20.8834 54.1684C21.8871 51.7546 23.8707 49.8905 26.0455 49.3408C27.3838 49.0062 30.0606 46.3296 32.3309 43.1272C33.7648 41.0958 34.7208 43.8441 33.717 47.0466C30.5624 56.9406 26.4757 62.3895 21.7677 62.9153C19.7841 63.1543 19.3538 63.5605 17.657 66.9303C16.5338 69.1289 16.5099 69.2484 17.1074 69.6786C18.5413 70.7302 19.9036 69.7264 20.8356 66.9542C21.4809 65.0423 21.5526 64.9467 23.0104 64.5882C28.5071 63.1782 31.2316 59.928 35.1748 50.1534C38.1861 42.697 36.2503 38.921 30.7297 41.4781Z" fill="black"/>
</svg>
