<svg width="28" height="16" viewBox="0 0 28 16" fill="none" xmlns="http://www.w3.org/2000/svg">
<path d="M26.7723 1.13997C26.959 0.519975 26.7723 0.0653076 25.8897 0.0653076H22.9657C22.2217 0.0653076 21.8817 0.458642 21.695 0.890642C21.695 0.890642 20.2083 4.51597 18.1017 6.86664C17.4217 7.55064 17.111 7.76664 16.7403 7.76664C16.555 7.76664 16.2857 7.55064 16.2857 6.93064V1.13997C16.2857 0.395975 16.071 0.0653076 15.451 0.0653076H10.8563C10.3923 0.0653076 10.1123 0.409308 10.1123 0.737308C10.1123 1.44131 11.1657 1.60397 11.2737 3.58798V7.89197C11.2737 8.83464 11.1043 9.00664 10.731 9.00664C9.74033 9.00664 7.32966 5.36798 5.89899 1.20264C5.62033 0.393308 5.33899 0.0666415 4.59232 0.0666415H1.66966C0.833659 0.0666415 0.666992 0.459975 0.666992 0.891975C0.666992 1.66797 1.65766 5.50797 5.28166 10.5866C7.69766 14.0546 11.099 15.9346 14.1977 15.9346C16.055 15.9346 16.2843 15.5173 16.2843 14.7973V12.176C16.2843 11.3413 16.4617 11.1733 17.0497 11.1733C17.4817 11.1733 18.2257 11.392 19.9603 13.0626C21.9417 15.044 22.2697 15.9333 23.383 15.9333H26.3057C27.1403 15.9333 27.5577 15.516 27.3177 14.692C27.055 13.872 26.1083 12.6786 24.8523 11.2666C24.1697 10.4613 23.1497 9.59464 22.839 9.16131C22.4057 8.60264 22.531 8.35598 22.839 7.85998C22.8403 7.86131 26.4017 2.84531 26.7723 1.13997Z" fill="white"/>
</svg>
