<svg width="66" height="66" viewBox="0 0 66 66" fill="none" xmlns="http://www.w3.org/2000/svg">
<path fill-rule="evenodd" clip-rule="evenodd" d="M31.9767 6.45925C32.6108 6.09692 33.3892 6.09692 34.0233 6.45925L62.8983 22.9592C63.5409 23.3265 63.9375 24.0099 63.9375 24.75V47.4375C63.9375 48.5766 63.0141 49.5 61.875 49.5C60.7359 49.5 59.8125 48.5766 59.8125 47.4375V28.3041L53.625 31.8398V47.4375C53.625 48.1865 53.2189 48.8767 52.5641 49.2404L34.0016 59.5529C33.3787 59.899 32.6213 59.899 31.9984 59.5529L13.4359 49.2404C12.7811 48.8767 12.375 48.1865 12.375 47.4375V31.8398L3.10171 26.5408C2.45909 26.1735 2.0625 25.4901 2.0625 24.75C2.0625 24.0099 2.45909 23.3265 3.10171 22.9592L31.9767 6.45925ZM16.5 34.1969V46.2239L30.9375 54.2448V42.4469L16.5 34.1969ZM35.0625 42.4469V54.2448L49.5 46.2239V34.1969L35.0625 42.4469ZM33 38.8745L57.7179 24.75L33 10.6255L8.2821 24.75L33 38.8745Z" fill="black"/>
</svg>
