<svg width="80" height="80" viewBox="0 0 80 80" fill="none" xmlns="http://www.w3.org/2000/svg">
<path fill-rule="evenodd" clip-rule="evenodd" d="M25.9226 26.0016C26.1834 26.7843 26.3864 27.5379 26.3864 27.6828C26.3864 27.7988 25.4008 27.9147 24.1834 27.9147C22.3284 27.9147 17.7777 28.4365 15.5168 28.9292C14.7342 29.1031 12.7921 30.6393 12.1544 31.6248C11.111 33.1901 12.1834 38.4075 13.7196 39.2191C14.2124 39.4799 14.2415 39.5669 13.8357 40.3495C12.7922 42.3495 13.5458 45.364 15.6907 47.6828C16.7342 48.8133 16.8792 49.1321 16.8792 50.3205C16.8792 52.1176 17.6907 53.5959 19.5748 55.306C20.5023 56.1466 21.227 57.0741 21.3429 57.5669C22.5603 62.5524 30.2704 64.3495 42.5023 62.4944C49.082 61.5089 49.169 61.4799 49.7487 62.0596C50.6762 62.9292 51.8066 63.248 53.8936 63.248C55.6327 63.248 55.8936 63.335 56.4154 64.0017C57.169 64.9582 59.14 65.306 61.6328 64.9582C62.5893 64.8132 63.8937 64.6973 64.5603 64.6973C66.4154 64.6973 67.0531 64.0596 66.1545 63.1321C65.5169 62.4654 65.227 62.3785 63.256 62.3785C59.9516 62.3785 60.1835 63.364 59.4589 46.7263C59.2849 42.9872 59.082 38.1176 58.966 35.9147C58.7342 30.9872 58.4153 31.306 63.5747 31.5379C68.0385 31.7408 68.908 31.5379 67.9225 30.4364C66.7051 29.0741 62.8791 28.2046 58.2124 28.2046H57.2269C56.8211 28.2046 56.4443 28.3785 56.1834 28.6683C55.9225 28.9582 55.7776 29.335 55.7776 29.7408C55.8066 30.3785 55.8357 30.9292 55.8357 30.8422L52.3574 30.9002C48.9371 30.9582 48.8792 30.9582 48.9082 31.5959C48.9371 32.4654 48.6762 32.4364 46.6762 31.219C44.8501 30.1176 44.0676 29.0162 40.0386 21.8857C38.6762 19.4509 37.5167 17.7698 36.4733 16.6393C32.3283 12.1176 22.8211 16.0886 25.9226 26.0016ZM32.6763 16.8133C33.5169 17.4799 34.4444 19.3929 35.4299 22.5234C37.4589 28.9582 42.0096 33.5959 48.2994 35.6249L49.169 35.9147C49.227 37.7408 49.5168 52.3495 49.6038 57.6538L46.7631 57.8277C43.8646 58.0306 35.8067 59.1901 33.256 59.7988C29.4009 60.6973 24.9661 58.6393 24.9661 55.9727C24.9661 55.5089 24.8212 55.1321 24.6762 55.1321C22.7632 55.1321 19.8357 50.2045 20.9371 48.8712C21.1111 48.6683 20.7632 48.1756 20.0386 47.4509C18.1835 45.6828 17.9226 44.9582 18.1255 42.0306C18.2994 39.5959 18.2705 39.5089 17.6038 39.0451C15.6618 37.7698 15.2849 33.7408 16.9951 32.6393C17.4299 32.3495 19.6327 32.0306 23.5747 31.6538C31.5747 30.9002 31.082 31.4799 29.8066 24.3785C28.7051 18.6973 30.1835 14.8133 32.6763 16.8133ZM56.0385 60.0596C56.0095 60.0596 53.4009 60.0596 53.4878 60.0596L52.4153 33.9727C52.4733 33.9727 55.4009 33.9727 55.285 33.9727C55.6618 48.1466 55.1689 42.5234 56.0385 60.0596Z" fill="black"/>
</svg>
