<svg width="195" height="195" viewBox="0 0 195 195" fill="none" xmlns="http://www.w3.org/2000/svg">
<g clip-path="url(#clip0_6_1111)">
<path fill-rule="evenodd" clip-rule="evenodd" d="M100.047 14.7011C97.5463 12.7676 95.8372 13.4616 88.1313 19.4242C82.5515 23.7332 79.4233 26.6885 79.4894 27.6309C79.6858 29.864 83.2941 31.3588 85.6015 29.4196C88.1379 27.2579 93.6217 22.6245 95.7239 20.9393C101.232 16.3374 101.579 15.877 100.047 14.7011ZM73.2489 33.6289C70.0873 33.1864 58.8765 43.3807 59.5023 46.1829C60.2967 49.8005 63.8195 49.0777 68.1392 44.4792C70.8004 41.6281 72.9098 39.6894 74.6165 38.2034C76.3232 36.7173 75.4677 33.9394 73.2489 33.6289ZM52.3168 54.0846C49.748 53.2444 43.9674 59.3916 38.9158 68.412C34.5419 76.2265 39.5075 78.7312 44.4921 71.2001C46.8976 67.5497 50.8578 61.883 53.3121 58.6918C55.3399 55.9217 55.1312 54.9875 52.3168 54.0846ZM104.162 130.564C103.044 129.87 102.111 130.673 98.2831 135.396C96.5703 137.532 94.9752 139.232 94.7611 139.145C94.2935 139.051 84.5081 132.394 82.6188 130.942C80.9675 129.608 76.701 133.422 78.8932 135.539C80.6089 137.221 86.8231 141.512 89.393 142.748C91.7488 143.898 91.7477 143.502 89.2068 146.907C86.1452 151.003 85.8379 151.582 86.158 152.73C86.9979 155.619 90.0293 157.598 93.5382 157.58C101.174 157.575 107.443 158.848 118.171 162.611C124.236 164.733 124.162 163.648 117.65 155.017C111.949 147.461 108.908 142.115 107.11 136.377C105.671 131.708 105.472 131.313 104.162 130.564ZM69.3329 124.445C68.8725 124.098 66.5705 122.362 64.2446 120.594C49.9956 109.664 48.0039 113.995 54.1661 119.466C63.044 127.354 67.542 129.765 70.0081 127.904C71.3043 126.926 71.0552 125.676 69.3329 124.445ZM34.5734 84.4879C29.6312 84.6446 31.1182 95.0326 37.4658 104.432C43.6941 113.674 49.1986 110.712 44.2117 103.51C40.6405 98.3164 38.9513 94.828 37.5422 89.5408C36.2296 84.7762 36.0228 84.4363 34.5734 84.4879Z" fill="#EEB1FE"/>
</g>
<defs>
<clipPath id="clip0_6_1111">
<rect width="138.615" height="138.615" fill="white" transform="translate(110.898 0.242676) rotate(52.9672)"/>
</clipPath>
</defs>
</svg>
