<svg width="80" height="80" viewBox="0 0 80 80" fill="none" xmlns="http://www.w3.org/2000/svg">
<path d="M45.6208 37.6546C46.4886 37.6546 47.0787 37.238 47.6688 36.1272C49.7863 32.1699 51.5219 31.8922 52.4592 35.2941C53.3964 38.6265 56.9373 38.9737 56.9373 35.7454C56.9373 32.1699 51.3137 29.254 47.2869 30.7119C44.3016 31.8228 42.9131 37.6546 45.6208 37.6546Z" fill="black"/>
<path d="M27.0142 38.7308C27.0142 35.6413 29.1318 34.3916 30.1384 36.8563C31.284 39.5986 33.2973 40.397 34.061 38.3837C35.4842 34.7041 27.8474 31.0939 24.4108 33.8015C23.0569 34.8776 21.842 38.0365 22.328 39.2862C22.9181 40.8483 27.0142 40.3276 27.0142 38.7308Z" fill="black"/>
<path d="M29.4095 56.1566C38.7126 60.2874 48.1546 59.0378 54.3683 52.8588C60.8943 46.3674 58.3951 39.5984 49.9598 40.8827C49.1614 40.9869 46.8009 41.8547 44.7528 42.792C40.5872 44.6665 38.0184 44.8053 32.256 43.4168C22.7793 41.1951 20.3493 52.1645 29.4095 56.1566ZM53.4311 43.5556C55.0279 45.569 54.2989 49.0056 51.8343 51.3314C50.2027 52.8588 50.3763 52.9976 49.2655 49.1792C48.7795 47.4782 48.2241 45.7426 48.0158 45.2913C47.391 43.6945 52.3203 42.1324 53.4311 43.5556ZM43.0171 45.9509C45.0652 45.3955 45.0653 45.3607 46.0025 49.8387C47.0439 54.768 47.0439 54.8375 45.2735 55.4623C41.8369 56.6773 42.2187 56.6078 41.3855 46.3674L43.0171 45.9509ZM34.7207 46.3327H38.5737C38.5737 53.5878 38.678 53.4836 39.1987 56.1218L37.3242 55.7747C34.443 55.254 34.7207 55.0457 34.7207 46.3327ZM30.7633 45.1872C31.9782 45.4996 32.499 54.0738 31.3187 54.0738C30.2079 54.0738 27.6391 50.9149 27.2919 49.0751C26.7365 46.055 28.1251 44.4929 30.7633 45.1872Z" fill="black"/>
<path d="M52.0077 17.9026C46.5578 15.1602 46.419 16.2016 51.5565 21.2003C67.6288 36.7866 63.2895 60.2527 44.0237 62.1619C29.0623 63.6546 18.4053 54.4209 18.6831 40.5356C18.8913 29.4968 26.1464 17.9373 38.0877 16.5488C40.4829 16.2711 40.5524 16.2016 39.4762 15.6115C37.81 14.6743 32.9502 14.8478 29.9996 15.8892C26.1464 17.2778 22.2238 20.1242 19.169 23.8038C11.4974 32.9681 12.3306 47.3741 18.3707 55.9136C25.9034 66.5705 51.1399 68.4103 59.9918 58.9336C71.1 47.0617 66.865 25.4006 52.0077 17.9026Z" fill="black"/>
</svg>
