<svg width="289" height="294" viewBox="0 0 289 294" fill="none" xmlns="http://www.w3.org/2000/svg">
<path fill-rule="evenodd" clip-rule="evenodd" d="M143.934 96.623C147.47 103.769 159.258 105.71 160.393 96.623C161.529 87.5355 164.277 73.1147 166.514 64.1606C170.975 46.321 171.577 26.7897 181.604 11.0335C184.216 6.92727 188.243 -3.15396 195.123 0.973117C197.737 2.54187 197.9 6.89809 198.266 9.46059C199.487 18.0168 198.131 26.346 196.064 34.6106C192.354 49.4585 188.943 65.4085 184.118 79.8793C182.706 84.1189 179.089 96.623 178.146 100.313C176.618 106.285 186.475 108.954 189.15 111.629C189.15 111.629 194.052 107.983 194.493 107.542C199.131 102.904 202.825 97.5105 207.696 93.0813C210.902 90.1668 212.795 86.598 215.556 83.3355C224.945 72.2397 238.312 60.7501 251.079 53.7855C255.42 51.4189 262.389 45.3627 267.739 47.4981C273.487 49.7939 268.785 57.3439 268.008 58.7522C264.566 64.998 256.468 71.1418 250.502 77.9605C239.198 90.8813 229.868 97.5667 213.983 110.685C210.716 113.385 204.75 118.058 204.75 122.631C204.75 127.204 208.01 133.633 208.01 145.894C208.01 147.63 211.81 145.367 212.412 145.265C217.208 144.467 222.048 144.069 226.873 143.379C241.862 141.238 257.135 140.444 272.141 141.808C278.645 142.398 285.662 143.071 288.802 149.352C289.725 151.2 287.185 154.644 286.145 154.99C280.55 156.854 271.235 156.088 265.475 156.983C255.854 158.477 239.723 160.829 225.614 162.242C220.804 162.723 216.627 162.931 212.098 164.442C211.381 164.679 208.218 165.388 208.01 166.013C207.633 167.144 201.489 181.269 204.75 184.801C208.01 188.333 225.686 205.911 234.102 212.225C244.75 220.21 252.952 231.279 260.823 241.775C263.048 244.74 268.385 251.908 262.395 253.406C255.631 255.096 245.716 245.923 241.333 242.09C233.104 234.889 197.008 198.077 189.15 195.877C185.593 194.881 180.618 197 179.089 197.765C174.796 199.91 181.706 214.25 182.548 216.94C188.087 234.669 193.439 254.198 196.064 272.581C196.86 278.148 197.008 283.6 197.008 289.244C197.008 291.3 196.625 294.333 193.864 293.644C188.239 292.237 185.862 284.423 183.177 280.127C169.582 258.375 172.37 233.106 166.514 209.71C165.71 206.495 152.368 208.137 152.368 208.137C152.368 208.137 152.368 212.767 152.368 213.481C152.368 218.646 151.537 223.467 151.112 228.571C150.537 235.466 135.95 299.858 126.277 290.185C122.258 286.167 122.421 276.769 123.448 271.639C126.498 256.387 129.152 241.048 131.935 225.742C132.902 220.421 133.089 214.944 134.135 209.71C134.252 209.133 134.764 205.623 134.764 205.623C134.764 205.623 127.844 202.746 125.019 201.535C122.364 200.398 120.264 197.41 118.733 195.877C118.733 195.877 117.314 197.848 117.16 198.077C116.129 199.623 115.11 200.975 114.016 202.479C110.585 207.198 107.335 212.112 103.644 216.625C92.6665 230.04 79.9165 240.665 67.8061 252.777C64.6249 255.956 56.5519 266.314 50.8311 264.408C48.5124 263.635 49.2582 258.154 49.2582 256.55C49.2582 250.235 54.6769 241.7 59.004 237.373C67.4686 228.908 74.5436 217.944 83.8373 210.337C91.5394 204.035 99.454 195.352 106.473 188.333C109.144 185.662 111.187 172.837 103.644 170.1C95.8099 167.257 86.4479 171.985 78.4936 171.985C59.227 171.985 39.7395 174.713 20.652 173.244C15.4957 172.848 5.82696 173.365 1.47489 170.1C-2.01053 167.485 1.39989 163.531 4.30405 162.242C12.0936 158.779 18.9707 158.594 27.2541 157.84C35.1124 157.125 42.9874 156.921 50.8311 156.269C59.4121 155.552 90.6573 160.746 97.0436 154.99C100.06 152.271 98.5643 138.426 99.8706 133.633C99.8706 133.633 95.4081 131.7 93.8977 130.49C86.129 124.275 77.8373 118.181 69.6915 112.258C56.9207 102.969 45.5457 90.8334 32.2832 82.3939C26.407 78.6534 18.7946 70.0137 14.3645 64.4751C13.0416 62.8209 10.0707 58.4293 12.7916 56.6147C21.152 51.0418 31.0707 58.2939 37.9415 62.5876C48.3415 69.0876 58.5624 75.9314 68.4353 83.3355C75.2769 88.4689 83.7477 92.9918 89.8102 99.0543C94.3144 103.558 98.8227 108.065 103.329 112.571C104.204 113.448 105.98 116.025 108.358 117.288C116.451 121.584 127.535 103.769 127.535 103.769C127.535 103.769 125.775 100.879 125.019 99.3688C123.66 96.6501 122.602 93.7418 121.562 90.8813C116.314 76.4522 110.252 60.1168 107.729 44.9835C106.514 37.696 106.473 30.1356 106.473 22.6647C106.473 18.2543 106.185 13.5523 111.816 14.4918C119.404 15.7564 125.9 27.5377 128.477 33.9814C132.416 43.8293 133.504 54.1855 135.708 64.4751C138.135 75.8022 139.486 87.6314 143.934 96.623Z" fill="#EEB1FE"/>
</svg>
