<svg width="248" height="248" viewBox="0 0 248 248" fill="none" xmlns="http://www.w3.org/2000/svg">
<path d="M131.34 1.41181C125.72 -0.470602 122.28 -0.470602 116.66 1.41181C102.948 6.00396 103.543 35.065 107.78 63.7374C97.0524 36.812 82.9796 11.3787 68.8155 14.2895C63.0093 15.4827 60.0346 17.2091 56.1183 21.6585C46.6997 32.3589 61.2425 56.6474 78.9563 79.055C56.5098 61.3905 32.1893 46.9011 21.5097 56.3431C17.0689 60.2693 15.3491 63.2477 14.1686 69.0565C11.3085 83.1305 36.4078 97.0531 63.152 107.694C34.6706 103.535 5.97271 103.041 1.41181 116.66C-0.470602 122.28 -0.470602 125.72 1.41181 131.34C5.9727 144.959 34.6706 144.465 63.1519 140.306C36.4077 150.947 11.3084 164.87 14.1685 178.944C15.349 184.752 17.0688 187.731 21.5096 191.657C32.1891 201.099 56.5092 186.61 78.9555 168.946C61.2419 191.353 46.6994 215.641 56.1179 226.341C60.0343 230.791 63.009 232.517 68.8151 233.71C82.9794 236.621 97.0525 211.187 107.78 184.261C103.543 212.934 102.948 241.996 116.66 246.588C122.28 248.471 125.72 248.471 131.34 246.588C145.052 241.996 144.457 212.933 140.22 184.26C150.947 211.186 165.021 236.621 179.185 233.71C184.991 232.517 187.966 230.791 191.883 226.341C201.301 215.641 186.759 191.353 169.045 168.946C191.491 186.61 215.811 201.099 226.491 191.657C230.932 187.731 232.651 184.752 233.832 178.944C236.692 164.87 211.593 150.947 184.849 140.306C213.33 144.465 242.027 144.958 246.588 131.34C248.471 125.72 248.471 122.28 246.588 116.66C242.027 103.042 213.33 103.535 184.849 107.694C211.593 97.053 236.692 83.1305 233.832 69.0565C232.651 63.2477 230.931 60.2693 226.491 56.3431C215.811 46.9011 191.491 61.3905 169.044 79.055C186.758 56.6474 201.301 32.3589 191.882 21.6585C187.966 17.2091 184.991 15.4827 179.185 14.2895C165.021 11.3787 150.947 36.813 140.22 63.739C144.457 35.0661 145.052 6.00404 131.34 1.41181Z" fill="#EEB1FE"/>
</svg>
