<svg width="574" height="776" viewBox="0 0 574 776" fill="none" xmlns="http://www.w3.org/2000/svg">
<path d="M-164.301 124.364C-204.158 120.378 -199.707 95.1929 -175.557 70.577C-129.118 23.2431 -65.1758 3.35004 -19.3696 0.217167C10.4528 -1.82306 30.6201 10.5149 38.2528 37.1201C44.1015 57.508 36.4983 86.5255 18.2516 116.763C-6.71179 158.135 -50.9196 205.045 -65.5408 228.579C-66.1609 229.573 -66.8279 230.951 -67.4842 232.563C-58.93 227.552 -49.3526 220.497 -38.8712 213.116C13.106 176.521 73.9896 121.23 107.597 102.563C116.645 97.5607 174.601 64.5516 199.353 62.0427C221.091 59.8394 234.992 69.1894 242.492 80.4139C251.847 94.4149 254.129 111.325 248.406 129.817C239.769 157.718 203.992 193.595 193.258 207.001C150.027 260.497 103.545 310.383 60.2724 363.263C42.3886 385.117 25.0271 407.463 8.78401 430.889C5.28172 435.942 -10.9332 456.136 -22.2156 476.849C-23.0018 478.29 -23.8 479.931 -24.5607 481.642C-17.7972 479.386 -11.2132 475.483 -4.75372 471.134C22.0097 453.105 45.5614 424.871 63.3287 407.485C113.109 358.679 160.651 306.506 211.525 258.226C246.673 224.868 283.339 193.277 323.623 166.038C346.853 149.591 410.078 108.454 460.842 95.1929C500.51 84.8312 533.917 92.8133 554.442 117.564C570.912 137.398 572.869 165.827 563.812 196.969C551.162 240.463 512.908 290.764 497.29 308.854C467.522 342.524 435.478 374.66 401.047 404.633C352.471 446.919 300.128 485.41 254.748 530.374C236.603 548.355 219.271 567.022 203.557 587.136C195.818 597.15 167.317 631.109 147.236 665.56C141.746 674.981 140.617 687.947 138.211 697.02C141.449 696.38 144.792 695.459 148.093 694.716C165.835 690.727 183.221 682.354 195.209 675.853C239.063 652.042 275.18 629.38 308.983 603.161C342.069 577.499 372.765 548.295 406.567 511.491L491.01 430.889C542.842 379.175 605.168 443.043 556.274 492.291L473.993 572.195C435.173 611.89 399.918 643.081 362.347 670.513C324.231 698.341 283.867 722.449 234.811 747.407C213.466 758.293 180.42 771.845 149.379 775.156C119.976 778.29 92.2457 772.87 71.4475 756.029C52.6544 740.81 44.194 714.292 53.9495 680.211C67.9198 631.408 123.719 556.117 135.816 539.39C160.783 503.94 189.684 471.647 220.61 440.961C261.672 400.218 305.311 361.339 349.548 323.659C377.813 299.584 406.919 276.818 433.144 251.212C441.334 243.315 457.198 226.799 470.985 207.472C478.842 196.456 486.534 184.848 491.01 173.413C492.471 169.68 493.959 166.153 494.475 162.661C495.415 156.268 489.383 158.37 483.557 157.894C470.96 159.251 456.872 163.462 442.919 169.111C407.965 183.265 373.721 204.955 358.451 214.899C321.024 240.274 286.847 269.587 254.388 300.828C204.132 349.195 157.832 401.973 108.955 451.13C85.4741 474.794 52.1521 514.428 15.3453 534.018C-6.9984 545.911 -30.6907 551.055 -54.7139 546.783C-84.3327 541.525 -95.8306 523.645 -97.32 500.291C-98.0914 488.184 -94.3761 472.76 -87.2323 456.957C-75.0673 430.046 -52.7009 400.61 -48.2611 393.976C-31.3992 368.783 -13.3842 344.68 5.28841 321.162C45.0766 271.049 87.8755 223.652 128.057 173.417C88.2532 200.18 26.4615 255.547 -21.6544 284.063C-47.2566 299.235 -70.649 307.298 -87.7104 307.151C-117.868 306.888 -132.332 292.482 -139.125 274.642C-142.676 265.315 -143.818 253.903 -141.885 241.794C-139.112 224.424 -130.146 204.988 -122.95 193.895C-109.686 173.513 -73.6557 135.722 -47.2097 99.1245C-38.4962 87.0659 -21.6544 70.577 -26.267 64.4445C-30.8796 58.3121 -117.901 107.537 -117.901 107.537C-122.934 110.461 -130.674 115.522 -138.11 118.911C-139.915 120.078 -141.923 121.119 -144.141 122.007C-150.051 124.371 -160.574 124.736 -164.301 124.364Z" fill="#EEB1FE"/>
</svg>
