<svg width="80" height="80" viewBox="0 0 80 80" fill="none" xmlns="http://www.w3.org/2000/svg">
<path d="M34.611 50.898C34.9324 50.3623 42.9669 46.3986 47.2875 44.649C55.0009 41.5064 55.7864 40.9351 55.322 38.8284C54.7151 36.0789 48.5017 32.865 37.8246 29.7583C31.5756 27.9371 30.2188 27.7585 28.719 28.5084C28.0405 28.8298 27.8262 29.2939 27.7548 30.2583C27.7548 30.2939 26.7192 45.7916 26.3264 46.0771C24.1482 47.6484 33.8968 52.0406 34.611 50.898ZM31.6472 46.4702C31.3971 46.22 32.04 31.9722 32.2898 31.9722C32.4327 31.9722 48.6806 36.9 48.6806 37.6855C48.7162 38.4354 32.1113 46.9342 31.6472 46.4702Z" fill="black"/>
<path d="M69.3907 30.7225C66.5698 20.3312 63.7484 18.51 49.0009 17.653C40.3948 17.1531 26.6829 16.9746 23.5762 17.3674C20.7195 17.7244 16.8985 19.4385 15.9344 20.7954C15.5773 21.2953 14.7203 22.4023 13.9704 23.2951C11.8278 25.8661 12.8278 27.6158 16.613 28.0086C17.6485 28.1157 18.6483 27.5087 19.0411 26.5446C19.4339 25.6518 19.8268 24.6163 20.1839 23.6521C20.8623 21.7595 22.0405 21.0097 24.9687 20.5812C32.9319 19.4385 49.6435 21.0454 52.2861 21.1168C60.8562 21.4382 62.3206 21.8667 62.8562 24.2592C66.0342 38.8999 64.9629 45.6133 64.213 48.1483C61.249 58.2541 55.8211 58.0399 24.433 58.0043C22.719 58.0043 21.1122 57.2901 19.9338 56.0759C14.1847 50.0411 13.4347 40.3283 15.6843 33.1863C16.1129 31.7938 12.7919 29.9011 11.7564 30.9367C9.82807 32.8651 7.54262 51.9335 16.5056 58.3254C21.5048 61.8964 51.1435 63.5747 56.7855 62.4321C60.8206 61.6466 66.7838 56.2901 68.3551 52.1477C70.1049 47.3272 70.7119 35.5791 69.3907 30.7225Z" fill="black"/>
</svg>
