<svg display="none" xmlns="http://www.w3.org/2000/svg">
    <symbol id="vk" viewBox="0 0 28 24">
        <g>
            <path d="M26.7723 1.13997C26.959 0.519975 26.7723 0.0653076 25.8897
                                0.0653076H22.9657C22.2217 0.0653076 21.8817 0.458642 21.695 0.890642C21.695
                                0.890642 20.2083 4.51597 18.1017 6.86664C17.4217 7.55064 17.111 7.76664 16.7403
                                 7.76664C16.555 7.76664 16.2857 7.55064 16.2857 6.93064V1.13997C16.2857 0.395975
                                 16.071 0.0653076 15.451 0.0653076H10.8563C10.3923 0.0653076 10.1123 0.409308
                                 10.1123 0.737308C10.1123 1.44131 11.1657 1.60397 11.2737 3.58798V7.89197C11.2737
                                  8.83464 11.1043 9.00664 10.731 9.00664C9.74033 9.00664 7.32966 5.36798 5.89899
                                  1.20264C5.62033 0.393308 5.33899 0.0666415 4.59232 0.0666415H1.66966C0.833659
                                   0.0666415 0.666992 0.459975 0.666992 0.891975C0.666992 1.66797 1.65766 5.50797
                                    5.28166 10.5866C7.69766 14.0546 11.099 15.9346 14.1977 15.9346C16.055 15.9346
                                    16.2843 15.5173 16.2843 14.7973V12.176C16.2843 11.3413 16.4617 11.1733 17.0497
                                     11.1733C17.4817 11.1733 18.2257 11.392 19.9603 13.0626C21.9417 15.044 22.2697
                                     15.9333 23.383 15.9333H26.3057C27.1403 15.9333 27.5577 15.516 27.3177 14.692C27.055
                                      13.872 26.1083 12.6786 24.8523 11.2666C24.1697 10.4613 23.1497 9.59464 22.839
                                       9.16131C22.4057 8.60264 22.531 8.35598 22.839 7.85998C22.8403 7.86131 26.4017
                                       2.84531 26.7723 1.13997Z"/>
        </g>
    </symbol>
    <symbol id="tg" viewBox="0 0 32 32">
        <g>
            <path d="M27.5531 4.956L3.91313 14.072C2.2998 14.72 2.30913 15.62 3.61713 16.0213L9.68647 17.9147L23.7291
            9.05467C24.3931 8.65067 24.9998 8.868 24.5011 9.31067L13.1238 19.5787H13.1211L13.1238 19.58L12.7051
            25.836C13.3185 25.836 13.5891 25.5547 13.9331 25.2227L16.8811 22.356L23.0131 26.8853C24.1438 27.508
             24.9558 27.188 25.2371 25.8387L29.2625 6.868C29.6745 5.216 28.6318 4.468 27.5531 4.956Z"/>
        </g>
    </symbol>
    <symbol id="sun" viewBox="0 0 289 294">
        <g>
            <path
                    d="M143.934 96.623C147.47 103.769 159.258 105.71 160.393 96.623C161.529 87.5355
                                   164.277 73.1147 166.514 64.1606C170.975 46.321 171.577 26.7897 181.604 11.0335C184.216
                                    6.92727 188.243 -3.15396 195.123 0.973117C197.737 2.54187 197.9 6.89809 198.266
                                     9.46059C199.487 18.0168 198.131 26.346 196.064 34.6106C192.354 49.4585 188.943
                                     65.4085 184.118 79.8793C182.706 84.1189 179.089 96.623 178.146 100.313C176.618
                                     106.285 186.475 108.954 189.15 111.629C189.15 111.629 194.052 107.983 194.493
                                     107.542C199.131 102.904 202.825 97.5105 207.696 93.0813C210.902 90.1668 212.795
                                     86.598 215.556 83.3355C224.945 72.2397 238.312 60.7501 251.079 53.7855C255.42
                                      51.4189 262.389 45.3627 267.739 47.4981C273.487 49.7939 268.785 57.3439 268.008
                                       58.7522C264.566 64.998 256.468 71.1418 250.502 77.9605C239.198 90.8813 229.868
                                       97.5667 213.983 110.685C210.716 113.385 204.75 118.058 204.75 122.631C204.75
                                       127.204 208.01 133.633 208.01 145.894C208.01 147.63 211.81 145.367 212.412
                                        145.265C217.208 144.467 222.048 144.069 226.873 143.379C241.862 141.238 257.135
                                         140.444 272.141 141.808C278.645 142.398 285.662 143.071 288.802 149.352C289.725
                                          151.2 287.185 154.644 286.145 154.99C280.55 156.854 271.235 156.088 265.475
                                          156.983C255.854 158.477 239.723 160.829 225.614 162.242C220.804 162.723
                                           216.627 162.931 212.098 164.442C211.381 164.679 208.218 165.388 208.01
                                            166.013C207.633 167.144 201.489 181.269 204.75 184.801C208.01 188.333
                                             225.686 205.911 234.102 212.225C244.75 220.21 252.952 231.279 260.823
                                              241.775C263.048 244.74 268.385 251.908 262.395 253.406C255.631 255.096
                                               245.716 245.923 241.333 242.09C233.104 234.889 197.008 198.077 189.15
                                                195.877C185.593 194.881 180.618 197 179.089 197.765C174.796 199.91 181.706
                                                214.25 182.548 216.94C188.087 234.669 193.439 254.198 196.064 272.581C196.86
                                                 278.148 197.008 283.6 197.008 289.244C197.008 291.3 196.625 294.333 193.864
                                                 293.644C188.239 292.237 185.862 284.423 183.177 280.127C169.582 258.375 172.37
                                                  233.106 166.514 209.71C165.71 206.495 152.368 208.137 152.368 208.137C152.368
                                                   208.137 152.368 212.767 152.368 213.481C152.368 218.646 151.537 223.467
                                                    151.112 228.571C150.537 235.466 135.95 299.858 126.277 290.185C122.258
                                                     286.167 122.421 276.769 123.448 271.639C126.498 256.387 129.152 241.048
                                                     131.935 225.742C132.902 220.421 133.089 214.944 134.135 209.71C134.252
                                                      209.133 134.764 205.623 134.764 205.623C134.764 205.623 127.844 202.746
                                                       125.019 201.535C122.364 200.398 120.264 197.41 118.733 195.877C118.733
                                                        195.877 117.314 197.848 117.16 198.077C116.129 199.623 115.11 200.975
                                                         114.016 202.479C110.585 207.198 107.335 212.112 103.644 216.625C92.6665
                                                          230.04 79.9165 240.665 67.8061 252.777C64.6249 255.956 56.5519
                                                           266.314 50.8311 264.408C48.5124 263.635 49.2582 258.154 49.2582
                                                            256.55C49.2582 250.235 54.6769 241.7 59.004 237.373C67.4686
                                                             228.908 74.5436 217.944 83.8373 210.337C91.5394 204.035 99.454
                                                              195.352 106.473 188.333C109.144 185.662 111.187 172.837 103.644
                                                              170.1C95.8099 167.257 86.4479 171.985 78.4936 171.985C59.227 171.985
                                                              39.7395 174.713 20.652 173.244C15.4957 172.848 5.82696 173.365 1.47489
                                                               170.1C-2.01053 167.485 1.39989 163.531 4.30405 162.242C12.0936 158.779
                                                                18.9707 158.594 27.2541 157.84C35.1124 157.125 42.9874 156.921 50.8311
                                                                156.269C59.4121 155.552 90.6573 160.746 97.0436 154.99C100.06 152.271
                                                                 98.5643 138.426 99.8706 133.633C99.8706 133.633 95.4081 131.7 93.8977
                                                                 130.49C86.129 124.275 77.8373 118.181 69.6915 112.258C56.9207 102.969
                                                                  45.5457 90.8334 32.2832 82.3939C26.407 78.6534 18.7946 70.0137 14.3645
                                                                  64.4751C13.0416 62.8209 10.0707 58.4293 12.7916 56.6147C21.152 51.0418
                                                                  31.0707 58.2939 37.9415 62.5876C48.3415 69.0876 58.5624 75.9314 68.4353
                                                                   83.3355C75.2769 88.4689 83.7477 92.9918 89.8102 99.0543C94.3144 103.558
                                                                   98.8227 108.065 103.329 112.571C104.204 113.448 105.98 116.025 108.358
                                                                    117.288C116.451 121.584 127.535 103.769 127.535 103.769C127.535 103.769
                                                                    125.775 100.879 125.019 99.3688C123.66 96.6501 122.602 93.7418 121.562
                                                                    90.8813C116.314 76.4522 110.252 60.1168 107.729 44.9835C106.514 37.696
                                                                    106.473 30.1356 106.473 22.6647C106.473 18.2543 106.185 13.5523 111.816
                                                                     14.4918C119.404 15.7564 125.9 27.5377 128.477 33.9814C132.416 43.8293
                                                                     133.504 54.1855 135.708 64.4751C138.135 75.8022 139.486 87.6314 143.934 96.623Z"
            />
        </g>
    </symbol>
    <symbol id="left-arrow" viewBox="0 0 195 195">
        <g>
            <path fill-rule="evenodd" clip-rule="evenodd"
                  d="M100.047 14.7011C97.5463 12.7676 95.8372 13.4616 88.1313 19.4242C82.5515 23.7332
                          79.4233 26.6885 79.4894 27.6309C79.6858 29.864 83.2941 31.3588 85.6015 29.4196C88.1379
                          27.2579 93.6217 22.6245 95.7239 20.9393C101.232 16.3374 101.579 15.877 100.047
                          14.7011ZM73.2489 33.6289C70.0873 33.1864 58.8765 43.3807 59.5023 46.1829C60.2967 49.8005
                          63.8195 49.0777 68.1392 44.4792C70.8004 41.6281 72.9098 39.6894 74.6165 38.2034C76.3232
                           36.7173 75.4677 33.9394 73.2489 33.6289ZM52.3168 54.0846C49.748 53.2444 43.9674 59.3916
                           38.9158 68.412C34.5419 76.2265 39.5075 78.7312 44.4921 71.2001C46.8976 67.5497 50.8578
                           61.883 53.3121 58.6918C55.3399 55.9217 55.1312 54.9875 52.3168 54.0846ZM104.162
                           130.564C103.044 129.87 102.111 130.673 98.2831 135.396C96.5703 137.532 94.9752
                           139.232 94.7611 139.145C94.2935 139.051 84.5081 132.394 82.6188 130.942C80.9675
                           129.608 76.701 133.422 78.8932 135.539C80.6089 137.221 86.8231 141.512 89.393
                           142.748C91.7488 143.898 91.7477 143.502 89.2068 146.907C86.1452 151.003 85.8379 151.582
                            86.158 152.73C86.9979 155.619 90.0293 157.598 93.5382 157.58C101.174 157.575 107.443
                            158.848 118.171 162.611C124.236 164.733 124.162 163.648 117.65 155.017C111.949 147.461
                             108.908 142.115 107.11 136.377C105.671 131.708 105.472 131.313 104.162 130.564ZM69.3329
                              124.445C68.8725 124.098 66.5705 122.362 64.2446 120.594C49.9956 109.664 48.0039 113.995
                              54.1661 119.466C63.044 127.354 67.542 129.765 70.0081 127.904C71.3043 126.926 71.0552
                               125.676 69.3329 124.445ZM34.5734 84.4879C29.6312 84.6446 31.1182 95.0326 37.4658
                               104.432C43.6941 113.674 49.1986 110.712 44.2117 103.51C40.6405 98.3164 38.9513 94.828
                                37.5422 89.5408C36.2296 84.7762 36.0228 84.4363 34.5734 84.4879Z"/>
        </g>
    </symbol>
    <symbol id="school" viewBox="0 0 66 66">
        <g>
            <path fill-rule="evenodd" clip-rule="evenodd" d="M31.9767 6.45925C32.6108 6.09692 33.3892 6.09692
             34.0233 6.45925L62.8983 22.9592C63.5409 23.3265 63.9375 24.0099 63.9375 24.75V47.4375C63.9375
              48.5766 63.0141 49.5 61.875 49.5C60.7359 49.5 59.8125 48.5766 59.8125 47.4375V28.3041L53.625
               31.8398V47.4375C53.625 48.1865 53.2189 48.8767 52.5641 49.2404L34.0016 59.5529C33.3787 59.899
               32.6213 59.899 31.9984 59.5529L13.4359 49.2404C12.7811 48.8767 12.375 48.1865 12.375
               47.4375V31.8398L3.10171 26.5408C2.45909 26.1735 2.0625 25.4901 2.0625 24.75C2.0625 24.0099
               2.45909 23.3265 3.10171 22.9592L31.9767 6.45925ZM16.5 34.1969V46.2239L30.9375 54.2448V42.4469L16.5
               34.1969ZM35.0625 42.4469V54.2448L49.5 46.2239V34.1969L35.0625 42.4469ZM33 38.8745L57.7179 24.75L33
                10.6255L8.2821 24.75L33 38.8745Z"/>
        </g>
    </symbol>
    <symbol id="exam" viewBox="0 0 66 66">
        <g>
            <path fill-rule="evenodd" clip-rule="evenodd"
                  d="M19.25 8.25C18.5207 8.25 17.8212 8.53973 17.3055 9.05546C16.7897 9.57118 16.5 10.2707 16.5 11V55C16.5 55.7293 16.7897 56.4288 17.3055 56.9445C17.8212 57.4603 18.5207 57.75 19.25 57.75H46.75C47.4793 57.75 48.1788 57.4603 48.6945 56.9445C49.2103 56.4288 49.5 55.7293 49.5 55V21.6887L37.284 8.25H19.25ZM19.25 5.5H37.8923C38.2797 5.5 38.6491 5.66344 38.9097 5.95011L51.8925 20.2322C52.1225 20.4853 52.25 20.8151 52.25 21.1571V55C52.25 56.4587 51.6705 57.8576 50.6391 58.8891C49.6076 59.9205 48.2087 60.5 46.75 60.5H19.25C17.7913 60.5 16.3924 59.9205 15.3609 58.8891C14.3295 57.8576 13.75 56.4587 13.75 55V11C13.75 9.54131 14.3295 8.14236 15.3609 7.11091C16.3924 6.07946 17.7913 5.5 19.25 5.5Z"
                  fill="#48225A"/>
            <path fill-rule="evenodd" clip-rule="evenodd"
                  d="M19.25 45.375C19.25 44.6156 19.8656 44 20.625 44H45.375C46.1344 44 46.75 44.6156 46.75 45.375C46.75 46.1344 46.1344 46.75 45.375 46.75H20.625C19.8656 46.75 19.25 46.1344 19.25 45.375ZM19.25 50.875C19.25 50.1156 19.8656 49.5 20.625 49.5H37.125C37.8844 49.5 38.5 50.1156 38.5 50.875C38.5 51.6344 37.8844 52.25 37.125 52.25H20.625C19.8656 52.25 19.25 51.6344 19.25 50.875Z"
                  fill="#48225A"/>
            <path fill-rule="evenodd" clip-rule="evenodd"
                  d="M27.5004 20.625C28.0554 20.625 28.5561 20.9588 28.7696 21.4712L33.914 33.8177C33.9225 33.8368 33.9305 33.8561 33.9381 33.8756L35.6446 37.9712C35.9367 38.6721 35.6052 39.4772 34.9042 39.7692C34.2032 40.0613 33.3982 39.7298 33.1061 39.0288L31.7399 35.75H23.2608L21.8946 39.0288C21.6025 39.7298 20.7975 40.0613 20.0965 39.7692C19.3955 39.4772 19.0641 38.6721 19.3561 37.9712L21.0626 33.8756C21.0702 33.8561 21.0783 33.8368 21.0867 33.8178L26.2311 21.4712C26.4446 20.9588 26.9453 20.625 27.5004 20.625ZM24.4066 33H30.5941L27.5004 25.575L24.4066 33Z"
                  fill="#48225A"/>
            <path fill-rule="evenodd" clip-rule="evenodd"
                  d="M41.25 28.875C42.0094 28.875 42.625 29.4906 42.625 30.25V33H45.375C46.1344 33 46.75 33.6156 46.75 34.375C46.75 35.1344 46.1344 35.75 45.375 35.75H42.625V38.5C42.625 39.2594 42.0094 39.875 41.25 39.875C40.4906 39.875 39.875 39.2594 39.875 38.5V35.75H37.125C36.3656 35.75 35.75 35.1344 35.75 34.375C35.75 33.6156 36.3656 33 37.125 33H39.875V30.25C39.875 29.4906 40.4906 28.875 41.25 28.875Z"
                  fill="#48225A"/>

        </g>
    </symbol>
    <symbol id="document" viewBox="0 0 66 66">
        <g>
            <path fill-rule="evenodd" clip-rule="evenodd"
                  d="M11.5207 6.02068C12.2943 5.2471 13.3435 4.8125 14.4375 4.8125H19.25C20.0094 4.8125 20.625 5.42811 20.625 6.1875C20.625 6.94689 20.0094 7.5625 19.25 7.5625H14.4375C14.0728 7.5625 13.7231 7.70737 13.4652 7.96523C13.2074 8.22309 13.0625 8.57283 13.0625 8.9375V57.0625C13.0625 57.4272 13.2074 57.7769 13.4652 58.0348C13.7231 58.2926 14.0728 58.4375 14.4375 58.4375H51.5625C51.9272 58.4375 52.2769 58.2926 52.5348 58.0348C52.7926 57.7769 52.9375 57.4272 52.9375 57.0625V8.9375C52.9375 8.57282 52.7926 8.22309 52.5348 7.96523C52.2769 7.70737 51.9272 7.5625 51.5625 7.5625H33C32.2406 7.5625 31.625 6.94689 31.625 6.1875C31.625 5.42811 32.2406 4.8125 33 4.8125H51.5625C52.6565 4.8125 53.7057 5.2471 54.4793 6.02068C55.2529 6.79427 55.6875 7.84348 55.6875 8.9375V57.0625C55.6875 58.1565 55.2529 59.2057 54.4793 59.9793C53.7057 60.7529 52.6565 61.1875 51.5625 61.1875H14.4375C13.3435 61.1875 12.2943 60.7529 11.5207 59.9793C10.7471 59.2057 10.3125 58.1565 10.3125 57.0625V8.9375C10.3125 7.84348 10.7471 6.79427 11.5207 6.02068Z"
                  fill="black"/>
            <path fill-rule="evenodd" clip-rule="evenodd"
                  d="M19.8199 4.93582C20.2949 5.15243 20.625 5.63141 20.625 6.1875V35.868L25.1527 31.3402C25.6897 30.8033 26.5603 30.8033 27.0973 31.3402L31.625 35.868V4.8125H20.3888C20.3887 4.8125 20.3889 4.8125 20.3888 4.8125C20.1907 4.81258 19.9968 4.85539 19.8199 4.93582ZM34.375 12.375V4.8125C34.375 4.08316 34.0853 3.38368 33.5695 2.86796C33.0538 2.35223 32.3543 2.0625 31.625 2.0625H20.3885C19.2946 2.06273 18.2454 2.49743 17.472 3.27098C17.472 3.27093 17.4719 3.27103 17.472 3.27098L15.5277 5.21523C14.9908 5.7522 14.9908 6.6228 15.5277 7.15977C16.0647 7.69674 16.9353 7.69674 17.4723 7.15977L17.875 6.75704V39.1875C17.875 39.7436 18.21 40.245 18.7238 40.4578C19.2376 40.6707 19.829 40.553 20.2223 40.1598L26.125 34.257L32.0277 40.1598C32.421 40.553 33.0124 40.6707 33.5262 40.4578C34.04 40.245 34.375 39.7436 34.375 39.1875V34.375H46.75C47.5094 34.375 48.125 33.7594 48.125 33C48.125 32.2406 47.5094 31.625 46.75 31.625H34.375V24.75H46.75C47.5094 24.75 48.125 24.1344 48.125 23.375C48.125 22.6156 47.5094 22 46.75 22H34.375V15.125H46.75C47.5094 15.125 48.125 14.5094 48.125 13.75C48.125 12.9906 47.5094 12.375 46.75 12.375H34.375ZM17.875 42.625C17.875 41.8656 18.4906 41.25 19.25 41.25H46.75C47.5094 41.25 48.125 41.8656 48.125 42.625C48.125 43.3844 47.5094 44 46.75 44H19.25C18.4906 44 17.875 43.3844 17.875 42.625ZM17.875 52.25C17.875 51.4906 18.4906 50.875 19.25 50.875H46.75C47.5094 50.875 48.125 51.4906 48.125 52.25C48.125 53.0094 47.5094 53.625 46.75 53.625H19.25C18.4906 53.625 17.875 53.0094 17.875 52.25Z"
                  fill="black"/>

        </g>
    </symbol>
    <symbol id="flag" viewBox="0 0 414 357">
        <g>
            <path d="M182.627 37.3531C184.45 45.706 186.803 36.706 185.921 24.9413C184.156 2.17662 182.627 -4.41161 180.862 2.76486C180.627 3.58839 181.039 30.1178 182.627 37.3531Z"
                  fill="#EEB1FE"/>
            <path d="M216.627 55.8825C218.568 55.1766 225.216 28.9419 226.216 17.8242C226.627 13.2948 226.039 6.88247 222.098 19.1766C218.804 29.3531 216.333 44.2942 214.451 53.2942C214.216 54.4119 215.686 56.1766 216.627 55.8825Z"
                  fill="#EEB1FE"/>
            <path d="M274.803 91.7649C270.568 99.0002 269.744 101.177 270.568 102.177C272.333 104.294 271.803 102.53 277.98 94.4714C282.038 89.1773 278.744 85.0002 274.803 91.7649Z"
                  fill="#EEB1FE"/>
            <path d="M106.038 233.235C94.6854 243.235 78.0972 264.236 68.2148 274.589C59.9207 283.295 62.2736 286.941 72.7442 275.647C85.6266 261.765 113.509 233.766 113.509 229.883C113.509 228.295 109.627 230 106.038 233.235Z"
                  fill="#EEB1FE"/>
            <path d="M285.744 32.765C288.038 28.2356 285.567 27.2944 282.273 31.4709C278.803 35.8238 255.92 68.8238 255.861 73.4709C255.803 80.8238 273.744 56.412 285.744 32.765Z"
                  fill="#EEB1FE"/>
            <path d="M77.8614 221.706C97.8614 206.765 115.803 195.707 113.391 194.177C112.391 193.53 112.391 193.53 109.156 195.235C105.038 197.412 101.626 199.824 87.6849 209.177C58.7438 228.589 58.9791 228.294 61.5085 229.941C63.9791 231.53 66.0379 230.471 77.8614 221.706Z"
                  fill="#EEB1FE"/>
            <path d="M397.038 148.353C412.509 144.059 411.391 139.353 395.626 142.294C388.214 143.706 385.626 145.765 388.214 148.353C389.744 149.824 391.45 149.882 397.038 148.353Z"
                  fill="#EEB1FE"/>
            <path d="M288.627 101.824C286.745 103.707 289.215 106.706 291.45 105.294C319.45 87.4709 345.921 65.412 345.921 63.1767C345.921 60.4708 342.51 60.1179 338.569 62.4709C313.863 77.2944 286.098 103.883 288.627 101.824Z"
                  fill="#EEB1FE"/>
            <path d="M404.686 88.1184C404.686 86.4125 404.215 86.4119 398.509 87.4707C394.686 88.1766 393.921 89.3531 395.274 91.8825C396.509 94.1178 404.686 90.8831 404.686 88.1184Z"
                  fill="#EEB1FE"/>
            <path d="M144.391 250.294C135.744 259.647 127.274 274.177 117.98 286.942C104.038 306.118 111.038 306.883 119.568 294.295C121.686 291.177 142.862 263.294 148.568 251.706C151.803 245.235 149.156 245.118 144.391 250.294Z"
                  fill="#EEB1FE"/>
            <path d="M366.744 171.06C366.391 171.177 365.038 171.589 363.685 171.942C358.215 173.354 357.803 176.06 363.097 176.06C377.332 176.06 373.862 168.471 366.744 171.06Z"
                  fill="#EEB1FE"/>
            <path d="M321.979 124.118C324.391 123.177 353.508 111.236 370.155 104.412C380.744 100.059 383.979 98.2361 384.45 96.3538C385.155 93.5302 383.803 93.1185 378.332 94.5891C373.685 95.8243 333.744 113.236 322.155 119.06C315.861 122.236 315.685 126.588 321.979 124.118Z"
                  fill="#EEB1FE"/>
            <path d="M388.392 275.412C370.568 258 341.627 233.294 331.568 226.412C326.921 223.235 326.274 224.471 330.156 228.647C335.686 234.588 348.921 247.471 354.686 252.353C393.156 285 395.392 292.588 398.921 289.059C400.627 287.412 400.333 287 388.392 275.412Z"
                  fill="#EEB1FE"/>
            <path d="M363.097 309.412C360.45 310.471 365.686 318.294 368.568 317.588C370.568 317.059 370.392 316.118 367.568 312.294C365.156 309.059 364.627 308.765 363.097 309.412Z"
                  fill="#EEB1FE"/>
            <path d="M343.509 285.294C347.685 294.118 350.921 297.707 353.744 296.648C356.568 295.53 355.568 292.883 349.509 285.471C343.156 277.648 340.862 279.824 343.509 285.294Z"
                  fill="#EEB1FE"/>
            <path d="M310.392 284.177C307.392 284.824 314.803 301.118 327.333 321.236C334.215 332.295 338.509 339.53 340.274 342.824C343.862 349.766 350.098 350.942 340.98 334.883C323.921 305.06 314.215 283.295 310.392 284.177Z"
                  fill="#EEB1FE"/>
            <path d="M372.333 233.001C372.333 230.236 358.922 223.177 357.157 225C355.863 226.294 356.392 227.118 360.568 230.706C367.686 236.765 372.333 237.707 372.333 233.001Z"
                  fill="#EEB1FE"/>
            <path d="M411.097 190.06C412.509 189.707 413.392 188.294 413.156 186.883C412.921 185.471 411.686 184.413 410.215 184.471C393.98 185.177 371.45 187.647 345.921 192.647C341.392 193.53 335.744 196.295 347.274 196.236C362.921 196.06 401.274 192.707 411.097 190.06Z"
                  fill="#EEB1FE"/>
            <path d="M324.921 248.883C305.097 195.001 293.98 204 304.98 195.529C340.921 167.941 347.45 163.648 360.803 158.118C370.685 154.001 366.098 147.177 351.451 144.059C330.098 139.588 314.568 135.824 293.744 142.53C265.097 151.765 252.685 124.354 242.803 103.707C223.862 64.2359 180.215 41.2359 160.45 39.0007C151.979 38.0595 150.215 36.3536 144.215 45.1771C113.921 89.5301 83.4506 126.589 51.8623 171.648C48.1564 176.942 8.09733 234.471 6.09733 237.236C-6.02032 254.059 2.56803 252.765 9.15627 244.412C16.1564 235.529 31.5682 213.059 71.8623 156.059C118.392 166.471 142.568 190.412 157.451 224.118C175.686 265.412 192.215 276.118 229.803 270.942C245.392 268.824 239.451 270.471 269.803 266C283.098 264.059 304.038 265.294 316.979 268.824C331.803 272.882 332.803 270.354 324.921 248.883Z"
                  fill="#EEB1FE"/>
            <path d="M260.392 315.354C258.51 317.413 260.215 321.824 263.803 338.707C267.45 355.765 268.98 359.001 271.51 355.177C272.51 353.648 272.45 353.353 270.274 345.588C262.744 318.294 262.568 312.942 260.392 315.354Z"
                  fill="#EEB1FE"/>
            <path d="M121.45 222.647C123.921 219.059 120.156 218.177 117.097 221.648C113.686 225.53 118.509 226.941 121.45 222.647Z"
                  fill="#EEB1FE"/>
            <path d="M159.862 323.765C157.332 325.236 155.332 333.118 157.509 333.118C159.332 333.118 160.979 331.354 161.921 328.295C163.332 324.06 162.45 322.236 159.862 323.765Z"
                  fill="#EEB1FE"/>
            <path d="M176.332 269.412C175.627 269.588 174.862 271.177 173.862 274.471C165.391 302.294 164.979 304.412 167.509 304.765C169.921 305.118 170.862 303.118 173.744 292.177C178.274 274.471 178.921 268.765 176.332 269.412Z"
                  fill="#EEB1FE"/>
            <path d="M216.921 288.883C214.744 289.354 216.097 299.589 213.274 317.413C212.156 324.354 210.98 341.471 211.45 343.059C212.215 345.53 217.038 343.706 217.038 340.883C217.215 329.824 220.98 288.001 216.921 288.883Z"
                  fill="#EEB1FE"/>
            <path d="M258.215 293.707C255.274 286.413 251.98 288.53 253.744 298.647C255.333 307.824 261.744 302.413 258.215 293.707Z"
                  fill="#EEB1FE"/>
        </g>
    </symbol>
    <symbol id="youtube" viewBox="0 0 80 80">
        <g>
            <path d="M34.611 50.898C34.9324 50.3623 42.9669 46.3986 47.2875 44.649C55.0009 41.5064 55.7864 40.9351 55.322 38.8284C54.7151 36.0789 48.5017 32.865 37.8246 29.7583C31.5756 27.9371 30.2188 27.7585 28.719 28.5084C28.0405 28.8298 27.8262 29.2939 27.7548 30.2583C27.7548 30.2939 26.7192 45.7916 26.3264 46.0771C24.1482 47.6484 33.8968 52.0406 34.611 50.898ZM31.6472 46.4702C31.3971 46.22 32.04 31.9722 32.2898 31.9722C32.4327 31.9722 48.6806 36.9 48.6806 37.6855C48.7162 38.4354 32.1113 46.9342 31.6472 46.4702Z"
                  fill="black"/>
            <path d="M69.3907 30.7225C66.5698 20.3312 63.7484 18.51 49.0009 17.653C40.3948 17.1531 26.6829 16.9746 23.5762 17.3674C20.7195 17.7244 16.8985 19.4385 15.9344 20.7954C15.5773 21.2953 14.7203 22.4023 13.9704 23.2951C11.8278 25.8661 12.8278 27.6158 16.613 28.0086C17.6485 28.1157 18.6483 27.5087 19.0411 26.5446C19.4339 25.6518 19.8268 24.6163 20.1839 23.6521C20.8623 21.7595 22.0405 21.0097 24.9687 20.5812C32.9319 19.4385 49.6435 21.0454 52.2861 21.1168C60.8562 21.4382 62.3206 21.8667 62.8562 24.2592C66.0342 38.8999 64.9629 45.6133 64.213 48.1483C61.249 58.2541 55.8211 58.0399 24.433 58.0043C22.719 58.0043 21.1122 57.2901 19.9338 56.0759C14.1847 50.0411 13.4347 40.3283 15.6843 33.1863C16.1129 31.7938 12.7919 29.9011 11.7564 30.9367C9.82807 32.8651 7.54262 51.9335 16.5056 58.3254C21.5048 61.8964 51.1435 63.5747 56.7855 62.4321C60.8206 61.6466 66.7838 56.2901 68.3551 52.1477C70.1049 47.3272 70.7119 35.5791 69.3907 30.7225Z"
                  fill="black"/>
        </g>
    </symbol>
    <symbol id="like" viewBox="0 0 80 80">
        <g>
            <path fill-rule="evenodd" clip-rule="evenodd"
                  d="M25.9226 26.0016C26.1834 26.7843 26.3864 27.5379 26.3864 27.6828C26.3864 27.7988 25.4008 27.9147 24.1834 27.9147C22.3284 27.9147 17.7777 28.4365 15.5168 28.9292C14.7342 29.1031 12.7921 30.6393 12.1544 31.6248C11.111 33.1901 12.1834 38.4075 13.7196 39.2191C14.2124 39.4799 14.2415 39.5669 13.8357 40.3495C12.7922 42.3495 13.5458 45.364 15.6907 47.6828C16.7342 48.8133 16.8792 49.1321 16.8792 50.3205C16.8792 52.1176 17.6907 53.5959 19.5748 55.306C20.5023 56.1466 21.227 57.0741 21.3429 57.5669C22.5603 62.5524 30.2704 64.3495 42.5023 62.4944C49.082 61.5089 49.169 61.4799 49.7487 62.0596C50.6762 62.9292 51.8066 63.248 53.8936 63.248C55.6327 63.248 55.8936 63.335 56.4154 64.0017C57.169 64.9582 59.14 65.306 61.6328 64.9582C62.5893 64.8132 63.8937 64.6973 64.5603 64.6973C66.4154 64.6973 67.0531 64.0596 66.1545 63.1321C65.5169 62.4654 65.227 62.3785 63.256 62.3785C59.9516 62.3785 60.1835 63.364 59.4589 46.7263C59.2849 42.9872 59.082 38.1176 58.966 35.9147C58.7342 30.9872 58.4153 31.306 63.5747 31.5379C68.0385 31.7408 68.908 31.5379 67.9225 30.4364C66.7051 29.0741 62.8791 28.2046 58.2124 28.2046H57.2269C56.8211 28.2046 56.4443 28.3785 56.1834 28.6683C55.9225 28.9582 55.7776 29.335 55.7776 29.7408C55.8066 30.3785 55.8357 30.9292 55.8357 30.8422L52.3574 30.9002C48.9371 30.9582 48.8792 30.9582 48.9082 31.5959C48.9371 32.4654 48.6762 32.4364 46.6762 31.219C44.8501 30.1176 44.0676 29.0162 40.0386 21.8857C38.6762 19.4509 37.5167 17.7698 36.4733 16.6393C32.3283 12.1176 22.8211 16.0886 25.9226 26.0016ZM32.6763 16.8133C33.5169 17.4799 34.4444 19.3929 35.4299 22.5234C37.4589 28.9582 42.0096 33.5959 48.2994 35.6249L49.169 35.9147C49.227 37.7408 49.5168 52.3495 49.6038 57.6538L46.7631 57.8277C43.8646 58.0306 35.8067 59.1901 33.256 59.7988C29.4009 60.6973 24.9661 58.6393 24.9661 55.9727C24.9661 55.5089 24.8212 55.1321 24.6762 55.1321C22.7632 55.1321 19.8357 50.2045 20.9371 48.8712C21.1111 48.6683 20.7632 48.1756 20.0386 47.4509C18.1835 45.6828 17.9226 44.9582 18.1255 42.0306C18.2994 39.5959 18.2705 39.5089 17.6038 39.0451C15.6618 37.7698 15.2849 33.7408 16.9951 32.6393C17.4299 32.3495 19.6327 32.0306 23.5747 31.6538C31.5747 30.9002 31.082 31.4799 29.8066 24.3785C28.7051 18.6973 30.1835 14.8133 32.6763 16.8133ZM56.0385 60.0596C56.0095 60.0596 53.4009 60.0596 53.4878 60.0596L52.4153 33.9727C52.4733 33.9727 55.4009 33.9727 55.285 33.9727C55.6618 48.1466 55.1689 42.5234 56.0385 60.0596Z"
                  fill="black"/>
        </g>
    </symbol>
    <symbol id="highfive" viewBox="0 0 80 80">
        <g>
            <path d="M48.5334 13.206C49.9674 10.2904 48.1032 8.18728 46.1196 10.5055C44.6618 12.2262 42.6066 17.1254 42.9651 18.0574C43.8015 20.1844 46.0958 18.1769 48.5334 13.206Z"
                  fill="black"/>
            <path d="M34.266 19.0849C35.7716 19.5628 36.2974 18.6786 36.1301 15.9541C35.7716 10.5769 34.1226 8.35434 31.3025 9.47757C29.9642 10.0033 32.593 18.5591 34.266 19.0849Z"
                  fill="black"/>
            <path d="M19.1873 20.4715C22.581 23.0047 24.9468 24.128 26.1418 23.6978C27.6235 23.172 27.3846 22.6702 24.684 20.5432C21.2426 17.7948 19.3545 16.9823 17.5382 17.4602C16.2477 17.7948 16.6541 18.5596 19.1873 20.4715Z"
                  fill="black"/>
            <path d="M48.5087 21.3792C47.6962 22.2635 47.6962 22.2873 48.3176 22.7414C50.0861 24.0319 51.9741 23.0043 59.4544 16.6234C61.4619 14.9026 58.1399 13.5404 55.7978 15.1416C54.579 15.9781 49.4647 20.3516 48.5087 21.3792Z"
                  fill="black"/>
            <path d="M76.9493 64.4446C76.1129 63.7516 75.5632 62.461 75.3243 60.6208C75.157 59.3542 72.4803 38.4189 71.2615 32.8983C70.2577 28.3098 67.4377 26.135 65.1912 26.0155C63.7812 25.9438 62.9686 26.8759 62.395 26.5174C60.8416 25.5376 60.4114 25.0835 58.8819 25.2269C58.1649 25.2747 56.5637 25.7048 56.014 26.1828C55.6555 26.4696 55.2016 26.4696 54.1978 26.2067C49.2747 24.8923 47.0998 29.5764 49.3224 36.7221C50.589 40.8088 52.4054 39.0164 51.8796 34.2128C51.1865 27.8557 51.3299 27.1865 53.3135 27.9035C54.389 28.2859 54.4367 28.3815 54.3411 29.6959C54.1977 31.5361 55.4883 39.9485 55.9663 40.2592C57.2807 41.1195 58.2845 39.59 57.8543 37.3196C56.6832 30.9625 57.4719 27.0193 59.814 27.6167C60.531 27.8079 61.0567 28.4532 61.0567 29.194C61.1762 36.3876 61.2479 41.1912 63.4465 41.1912C64.8327 41.1912 64.8327 41.239 64.522 35.0014C64.1874 28.3815 64.9761 28.023 66.1472 28.3815C67.844 28.9073 68.0113 32.8744 68.1786 33.9499C68.1786 33.9738 71.9545 58.7806 71.9545 58.8284C72.4086 64.4685 75.9217 69.4156 78.3832 67.8383C78.8851 67.5037 77.9531 65.2811 76.9493 64.4446Z"
                  fill="black"/>
            <path d="M17.9196 34.3322C17.9196 30.4845 17.9674 30.1738 18.7321 29.3134C20.0944 27.7122 20.5246 29.1701 20.7875 36.5309C20.9787 41.9081 21.0026 41.9797 22.1497 42.3143C23.6315 42.7684 23.7749 42.0753 23.6076 36.0051C23.4403 30.5323 23.4642 30.3411 24.1811 29.6241C25.6628 28.1185 25.9736 28.716 26.5949 33.902C26.9534 37.0566 26.9055 38.8251 26.4037 41.5496C26.2842 42.2426 26.4036 42.4577 26.9772 42.625C28.5306 43.0313 28.7935 42.5055 29.2476 37.9648C30.0362 30.1021 28.9608 27.7361 24.5157 27.6883C23.2013 27.6644 21.6956 27.4971 21.1699 27.2581C20.6441 27.0431 19.4491 26.8758 18.5171 26.8997C17.585 26.9236 16.0555 26.8519 15.1473 26.7324C14.048 26.589 13.1399 26.6846 12.4947 26.9714C9.74633 28.238 9.26836 29.7197 6.04203 47.1419C5.49236 50.1531 4.87097 53.9052 4.70368 55.4586C4.3691 58.3504 3.36531 61.7201 2.02698 64.4923C1.09493 66.4042 1.31007 67.0973 2.79179 67.0973C5.44454 67.0973 7.93001 62.7955 8.52747 57.1315C8.83816 54.1203 9.38785 52.8776 10.3438 45.9947C12.1601 32.731 12.4946 31.2014 13.8329 29.648C15.6731 27.521 15.5058 28.2141 15.7448 40.5936C15.7448 41.1194 16.2228 41.5257 16.7486 41.4779C17.7046 41.4062 17.9196 40.5219 17.9196 34.3322Z"
                  fill="black"/>
            <path d="M62.4905 67.2885C60.9849 64.5162 60.8654 64.4207 58.1887 64.1339C54.9385 63.7754 52.4291 62.5088 51.3537 60.6925C48.9877 56.6536 45.6658 45.923 46.0482 43.5571C46.574 40.2351 47.6733 40.4741 49.4657 44.2501C50.8757 47.2136 51.8078 48.2651 55.1297 50.7506C56.6115 51.8499 57.5196 52.8298 58.1171 54.0008C58.8579 55.4347 59.1208 55.6737 59.9811 55.6737C62.9207 55.6737 59.4076 49.2928 55.8228 48.1456C54.2933 47.6677 53.8153 47.2614 53.8153 46.4727C53.8153 42.5294 48.0557 38.2516 44.9967 39.9245C42.3678 41.3823 42.1527 43.581 43.969 50.2009C47.4582 62.8911 49.4179 65.4722 55.9662 66.0458C58.5233 66.2848 59.1446 66.7149 60.4352 69.1287C62.2037 72.4506 64.2351 70.1802 63.8288 69.6545C63.6854 69.4394 63.088 68.3878 62.4905 67.2885Z"
                  fill="black"/>
            <path d="M30.7297 41.4781C28.9851 42.2907 27.097 44.2982 26.2845 46.2101C25.687 47.6201 25.5198 47.7635 24.1814 47.9786C21.2658 48.4327 18.7326 50.6075 18.3502 52.9256C18.0156 54.9809 20.1186 56.0325 20.8834 54.1684C21.8871 51.7546 23.8707 49.8905 26.0455 49.3408C27.3838 49.0062 30.0606 46.3296 32.3309 43.1272C33.7648 41.0958 34.7208 43.8441 33.717 47.0466C30.5624 56.9406 26.4757 62.3895 21.7677 62.9153C19.7841 63.1543 19.3538 63.5605 17.657 66.9303C16.5338 69.1289 16.5099 69.2484 17.1074 69.6786C18.5413 70.7302 19.9036 69.7264 20.8356 66.9542C21.4809 65.0423 21.5526 64.9467 23.0104 64.5882C28.5071 63.1782 31.2316 59.928 35.1748 50.1534C38.1861 42.697 36.2503 38.921 30.7297 41.4781Z"
                  fill="black"/>
        </g>
    </symbol>
    <symbol id="smile" viewBox="0 0 80 80">
        <g>
            <path d="M45.6208 37.6546C46.4886 37.6546 47.0787 37.238 47.6688 36.1272C49.7863 32.1699 51.5219 31.8922 52.4592 35.2941C53.3964 38.6265 56.9373 38.9737 56.9373 35.7454C56.9373 32.1699 51.3137 29.254 47.2869 30.7119C44.3016 31.8228 42.9131 37.6546 45.6208 37.6546Z"
                  fill="black"/>
            <path d="M27.0142 38.7308C27.0142 35.6413 29.1318 34.3916 30.1384 36.8563C31.284 39.5986 33.2973 40.397 34.061 38.3837C35.4842 34.7041 27.8474 31.0939 24.4108 33.8015C23.0569 34.8776 21.842 38.0365 22.328 39.2862C22.9181 40.8483 27.0142 40.3276 27.0142 38.7308Z"
                  fill="black"/>
            <path d="M29.4095 56.1566C38.7126 60.2874 48.1546 59.0378 54.3683 52.8588C60.8943 46.3674 58.3951 39.5984 49.9598 40.8827C49.1614 40.9869 46.8009 41.8547 44.7528 42.792C40.5872 44.6665 38.0184 44.8053 32.256 43.4168C22.7793 41.1951 20.3493 52.1645 29.4095 56.1566ZM53.4311 43.5556C55.0279 45.569 54.2989 49.0056 51.8343 51.3314C50.2027 52.8588 50.3763 52.9976 49.2655 49.1792C48.7795 47.4782 48.2241 45.7426 48.0158 45.2913C47.391 43.6945 52.3203 42.1324 53.4311 43.5556ZM43.0171 45.9509C45.0652 45.3955 45.0653 45.3607 46.0025 49.8387C47.0439 54.768 47.0439 54.8375 45.2735 55.4623C41.8369 56.6773 42.2187 56.6078 41.3855 46.3674L43.0171 45.9509ZM34.7207 46.3327H38.5737C38.5737 53.5878 38.678 53.4836 39.1987 56.1218L37.3242 55.7747C34.443 55.254 34.7207 55.0457 34.7207 46.3327ZM30.7633 45.1872C31.9782 45.4996 32.499 54.0738 31.3187 54.0738C30.2079 54.0738 27.6391 50.9149 27.2919 49.0751C26.7365 46.055 28.1251 44.4929 30.7633 45.1872Z"
                  fill="black"/>
            <path d="M52.0077 17.9026C46.5578 15.1602 46.419 16.2016 51.5565 21.2003C67.6288 36.7866 63.2895 60.2527 44.0237 62.1619C29.0623 63.6546 18.4053 54.4209 18.6831 40.5356C18.8913 29.4968 26.1464 17.9373 38.0877 16.5488C40.4829 16.2711 40.5524 16.2016 39.4762 15.6115C37.81 14.6743 32.9502 14.8478 29.9996 15.8892C26.1464 17.2778 22.2238 20.1242 19.169 23.8038C11.4974 32.9681 12.3306 47.3741 18.3707 55.9136C25.9034 66.5705 51.1399 68.4103 59.9918 58.9336C71.1 47.0617 66.865 25.4006 52.0077 17.9026Z"
                  fill="black"/>
        </g>
    </symbol>
    <symbol id="vzhux" viewBox="0 0 574 776">
        <g>
            <path d="M-164.301 124.364C-204.158 120.378 -199.707 95.1929 -175.557 70.577C-129.118 23.2431 -65.1758 3.35004 -19.3696 0.217167C10.4528 -1.82306 30.6201 10.5149 38.2528 37.1201C44.1015 57.508 36.4983 86.5255 18.2516 116.763C-6.71179 158.135 -50.9196 205.045 -65.5408 228.579C-66.1609 229.573 -66.8279 230.951 -67.4842 232.563C-58.93 227.552 -49.3526 220.497 -38.8712 213.116C13.106 176.521 73.9896 121.23 107.597 102.563C116.645 97.5607 174.601 64.5516 199.353 62.0427C221.091 59.8394 234.992 69.1894 242.492 80.4139C251.847 94.4149 254.129 111.325 248.406 129.817C239.769 157.718 203.992 193.595 193.258 207.001C150.027 260.497 103.545 310.383 60.2724 363.263C42.3886 385.117 25.0271 407.463 8.78401 430.889C5.28172 435.942 -10.9332 456.136 -22.2156 476.849C-23.0018 478.29 -23.8 479.931 -24.5607 481.642C-17.7972 479.386 -11.2132 475.483 -4.75372 471.134C22.0097 453.105 45.5614 424.871 63.3287 407.485C113.109 358.679 160.651 306.506 211.525 258.226C246.673 224.868 283.339 193.277 323.623 166.038C346.853 149.591 410.078 108.454 460.842 95.1929C500.51 84.8312 533.917 92.8133 554.442 117.564C570.912 137.398 572.869 165.827 563.812 196.969C551.162 240.463 512.908 290.764 497.29 308.854C467.522 342.524 435.478 374.66 401.047 404.633C352.471 446.919 300.128 485.41 254.748 530.374C236.603 548.355 219.271 567.022 203.557 587.136C195.818 597.15 167.317 631.109 147.236 665.56C141.746 674.981 140.617 687.947 138.211 697.02C141.449 696.38 144.792 695.459 148.093 694.716C165.835 690.727 183.221 682.354 195.209 675.853C239.063 652.042 275.18 629.38 308.983 603.161C342.069 577.499 372.765 548.295 406.567 511.491L491.01 430.889C542.842 379.175 605.168 443.043 556.274 492.291L473.993 572.195C435.173 611.89 399.918 643.081 362.347 670.513C324.231 698.341 283.867 722.449 234.811 747.407C213.466 758.293 180.42 771.845 149.379 775.156C119.976 778.29 92.2457 772.87 71.4475 756.029C52.6544 740.81 44.194 714.292 53.9495 680.211C67.9198 631.408 123.719 556.117 135.816 539.39C160.783 503.94 189.684 471.647 220.61 440.961C261.672 400.218 305.311 361.339 349.548 323.659C377.813 299.584 406.919 276.818 433.144 251.212C441.334 243.315 457.198 226.799 470.985 207.472C478.842 196.456 486.534 184.848 491.01 173.413C492.471 169.68 493.959 166.153 494.475 162.661C495.415 156.268 489.383 158.37 483.557 157.894C470.96 159.251 456.872 163.462 442.919 169.111C407.965 183.265 373.721 204.955 358.451 214.899C321.024 240.274 286.847 269.587 254.388 300.828C204.132 349.195 157.832 401.973 108.955 451.13C85.4741 474.794 52.1521 514.428 15.3453 534.018C-6.9984 545.911 -30.6907 551.055 -54.7139 546.783C-84.3327 541.525 -95.8306 523.645 -97.32 500.291C-98.0914 488.184 -94.3761 472.76 -87.2323 456.957C-75.0673 430.046 -52.7009 400.61 -48.2611 393.976C-31.3992 368.783 -13.3842 344.68 5.28841 321.162C45.0766 271.049 87.8755 223.652 128.057 173.417C88.2532 200.18 26.4615 255.547 -21.6544 284.063C-47.2566 299.235 -70.649 307.298 -87.7104 307.151C-117.868 306.888 -132.332 292.482 -139.125 274.642C-142.676 265.315 -143.818 253.903 -141.885 241.794C-139.112 224.424 -130.146 204.988 -122.95 193.895C-109.686 173.513 -73.6557 135.722 -47.2097 99.1245C-38.4962 87.0659 -21.6544 70.577 -26.267 64.4445C-30.8796 58.3121 -117.901 107.537 -117.901 107.537C-122.934 110.461 -130.674 115.522 -138.11 118.911C-139.915 120.078 -141.923 121.119 -144.141 122.007C-150.051 124.371 -160.574 124.736 -164.301 124.364Z"
                  fill="#EEB1FE"/>
        </g>
    </symbol>
    <symbol id="union" viewBox="0 0 248 248">
        <g>
            <path d="M131.34 1.41181C125.72 -0.470602 122.28 -0.470602 116.66 1.41181C102.948 6.00396 103.543 35.065 107.78 63.7374C97.0524 36.812 82.9796 11.3787 68.8155 14.2895C63.0093 15.4827 60.0346 17.2091 56.1183 21.6585C46.6997 32.3589 61.2425 56.6474 78.9563 79.055C56.5098 61.3905 32.1893 46.9011 21.5097 56.3431C17.0689 60.2693 15.3491 63.2477 14.1686 69.0565C11.3085 83.1305 36.4078 97.0531 63.152 107.694C34.6706 103.535 5.97271 103.041 1.41181 116.66C-0.470602 122.28 -0.470602 125.72 1.41181 131.34C5.9727 144.959 34.6706 144.465 63.1519 140.306C36.4077 150.947 11.3084 164.87 14.1685 178.944C15.349 184.752 17.0688 187.731 21.5096 191.657C32.1891 201.099 56.5092 186.61 78.9555 168.946C61.2419 191.353 46.6994 215.641 56.1179 226.341C60.0343 230.791 63.009 232.517 68.8151 233.71C82.9794 236.621 97.0525 211.187 107.78 184.261C103.543 212.934 102.948 241.996 116.66 246.588C122.28 248.471 125.72 248.471 131.34 246.588C145.052 241.996 144.457 212.933 140.22 184.26C150.947 211.186 165.021 236.621 179.185 233.71C184.991 232.517 187.966 230.791 191.883 226.341C201.301 215.641 186.759 191.353 169.045 168.946C191.491 186.61 215.811 201.099 226.491 191.657C230.932 187.731 232.651 184.752 233.832 178.944C236.692 164.87 211.593 150.947 184.849 140.306C213.33 144.465 242.027 144.958 246.588 131.34C248.471 125.72 248.471 122.28 246.588 116.66C242.027 103.042 213.33 103.535 184.849 107.694C211.593 97.053 236.692 83.1305 233.832 69.0565C232.651 63.2477 230.931 60.2693 226.491 56.3431C215.811 46.9011 191.491 61.3905 169.044 79.055C186.758 56.6474 201.301 32.3589 191.882 21.6585C187.966 17.2091 184.991 15.4827 179.185 14.2895C165.021 11.3787 150.947 36.813 140.22 63.739C144.457 35.0661 145.052 6.00404 131.34 1.41181Z"
                  fill="#EEB1FE"/>
        </g>
    </symbol>
</svg>

